<svg xmlns="http://www.w3.org/2000/svg" width="24.002" height="20.853" viewBox="0 0 24.002 20.853">
  <g id="monitor-heart-beat" transform="translate(0 -1.397)">
    <path id="Tracé_232" data-name="Tracé 232" d="M12,22.25a1.489,1.489,0,0,1-1.036-.417l-.038-.037L6.424,17.1a.751.751,0,0,1,.542-1.27.755.755,0,0,1,.542.231l4.485,4.679,4.5-4.678a.75.75,0,0,1,1.06-.023.751.751,0,0,1,.023,1.061l-4.492,4.686a1.492,1.492,0,0,1-1.05.462Z" fill="#002395"/>
    <path id="Tracé_233" data-name="Tracé 233" d="M1.471,11.337a.749.749,0,0,1-.655-.385A6.421,6.421,0,0,1,10.964,3.283L12,4.314l1.037-1.036a6.423,6.423,0,0,1,10.153,7.668.749.749,0,0,1-1.02.29.75.75,0,0,1-.29-1.02A4.924,4.924,0,0,0,14.1,4.338L12.532,5.9a.748.748,0,0,1-1.059,0L9.9,4.344a4.922,4.922,0,0,0-7.779,5.878.749.749,0,0,1-.655,1.115Z" fill="#002395"/>
    <path id="Tracé_234" data-name="Tracé 234" d="M12.067,16.6A1.122,1.122,0,0,1,11,15.82L9.58,11.109l-1.305,2.6a1.12,1.12,0,0,1-1.007.621H.75a.75.75,0,0,1,0-1.5H7.036l1.62-3.24a1.125,1.125,0,0,1,1.5-.514,1.124,1.124,0,0,1,.592.7l1.381,4.6,1.16-2.712a1.128,1.128,0,0,1,1.036-.682,1.123,1.123,0,0,1,.933.5l.9,1.342h7.1a.75.75,0,0,1,0,1.5h-7.5a.75.75,0,0,1-.624-.334L14.4,12.9l-1.3,3.028a1.129,1.129,0,0,1-1.032.676Z" fill="#002395"/>
  </g>
</svg>
