<svg xmlns="http://www.w3.org/2000/svg" xmlns:xlink="http://www.w3.org/1999/xlink" width="233.007" height="131.933" viewBox="0 0 233.007 131.933">
  <defs>
    <clipPath id="clip-path">
      <circle id="Ellipse_16" data-name="Ellipse 16" cx="65.712" cy="65.712" r="65.712" fill="none"/>
    </clipPath>
    <clipPath id="clip-path-2">
      <circle id="Ellipse_18" data-name="Ellipse 18" cx="64.232" cy="64.232" r="64.232" fill="none"/>
    </clipPath>
  </defs>
  <g id="Groupe_100" data-name="Groupe 100" transform="translate(638.544 -331.543)">
    <path id="Tracé_156" data-name="Tracé 156" d="M65.712,0A65.712,65.712,0,1,1,0,65.712,65.712,65.712,0,0,1,65.712,0Z" transform="translate(-638.204 332.053)" fill="#fff"/>
    <g id="Groupe_95" data-name="Groupe 95" transform="translate(-638.544 331.543)">
      <g id="Groupe_94" data-name="Groupe 94" clip-path="url(#clip-path)">
        <g id="Groupe_93" data-name="Groupe 93" transform="translate(25.804 18.487)">
          <ellipse id="Ellipse_15" data-name="Ellipse 15" cx="11.502" cy="10.71" rx="11.502" ry="10.71" transform="translate(27.613)" fill="#122d3d"/>
          <path id="Tracé_134" data-name="Tracé 134" d="M-519.938,410.335l2.326,31.642L-511.7,406.3l-16.67-15.191Z" transform="translate(574.259 -370.833)" fill="#001d27" fill-rule="evenodd"/>
          <path id="Tracé_135" data-name="Tracé 135" d="M-569.07,412.666l-2.326,31.642-5.915-35.681,16.67-15.191Z" transform="translate(591.353 -371.647)" fill="#001d27" fill-rule="evenodd"/>
          <path id="Tracé_136" data-name="Tracé 136" d="M-548.933,498.035c-8.039-3.2-17.973-13.746-19.318-25.538,4.581-1.614,7.718-3.338,9.021-8.349,3.409-.391,6.487,1.732,10.3,1.732a95.956,95.956,0,0,1,10.882.6c1.3,5.011,3.856,5.257,8.439,6.871C-530.958,485.148-540.894,494.833-548.933,498.035Z" transform="translate(588.189 -396.328)" fill="#ffcf98" fill-rule="evenodd"/>
          <path id="Tracé_137" data-name="Tracé 137" d="M-530.631,484.756l6.66-12.321a20,20,0,0,1-5.473-3.587c-2.243-2.222-1.6-4.341-1.6-4.341l-18.98,2.935,7.461,10Z" transform="translate(581.825 -396.47)" fill="#e7ae77"/>
          <path id="Tracé_138" data-name="Tracé 138" d="M-551.733,445.827c-4.441,0-24.186-21.256-24.8-34.439-1.167-24.956,8-24.732,16.638-25.222,19.191-1.088,30.459,7.308,30.478,22.24C-529.394,429.2-546.752,445.827-551.733,445.827Z" transform="translate(591.117 -369.075)" fill="#ffcf98" fill-rule="evenodd"/>
          <path id="Tracé_139" data-name="Tracé 139" d="M-576,399.243s.605-1.776.3-1.05c-.116-3.943-4.156-2.975-1.883-10.979,6.549-23.053,40.448-26.261,47.467-3.193,2.546,8.366.846,12.583,1.012,17.838-.5-1.341-1.294-4.37-2.274-4.366-1.392.005.6-1.306,0,.648-.234.763-1.536,1.972-1.387-1.772C-531.226,357.839-576,399.243-576,399.243Z" transform="translate(591.69 -362.847)" fill="#001d27" fill-rule="evenodd"/>
          <path id="Tracé_140" data-name="Tracé 140" d="M-546.506,370.878c4.13,4.562-2.307,13.948-10.059,20.965s-21.513,11.445-21.513,11.445c-4.129-4.562-1.192-20.946,6.56-27.963S-550.635,366.316-546.506,370.878Z" transform="translate(592.274 -362.913)" fill="#001d27" fill-rule="evenodd"/>
          <path id="Tracé_141" data-name="Tracé 141" d="M-527.594,375.358c3.508-1.9,9.537,2.451,13.464,9.712s3.017,17.388,1.927,18.917c-1.02,1.43-10.7-4.784-14.631-12.045S-531.1,377.256-527.594,375.358Z" transform="translate(574.835 -365.178)" fill="#001d27" fill-rule="evenodd"/>
          <path id="Tracé_142" data-name="Tracé 142" d="M-519.754,488.47c0-7.843-8.457-11.4-19.2-14.163-5.082-1.309-6.525-2.989-6.525-2.989l-13.847,25.167-13.847-25.167s-1.442,1.68-6.525,2.989c-10.738,2.767-19.2,6.321-19.2,14.163v14.26c10.072,9.479,23.675,9.965,38.693,9.984h1.749c15.018-.019,28.622-.5,38.693-9.984Z" transform="translate(598.89 -398.848)" fill="#126173"/>
          <path id="Tracé_143" data-name="Tracé 143" d="M-529.325,473.931c-4.856-1.3-6.254-2.915-6.254-2.915l-13.847,25.167-13.847-25.167s-1.443,1.68-6.525,2.99l-.35.092v.932l19.559,37.382h1.174l20.089-37.383Z" transform="translate(588.851 -398.743)" fill="#fff"/>
          <g id="Groupe_91" data-name="Groupe 91" transform="translate(18.636 71.145)">
            <path id="Tracé_144" data-name="Tracé 144" d="M-560.722,490.4l-8.059-14.6,5.276-3.669,9.417,9.618Z" transform="translate(569.738 -470.274)" fill="#c9c9c9"/>
            <path id="Tracé_145" data-name="Tracé 145" d="M-561.152,487.556l-9.1-14.063,6.317-4.21,9.417,9.618Z" transform="translate(570.252 -469.283)" fill="#fff"/>
          </g>
          <g id="Groupe_92" data-name="Groupe 92" transform="translate(43.592 71.165)">
            <path id="Tracé_146" data-name="Tracé 146" d="M-525.226,489.991l7.873-14.285-5.193-3.61-9.222,9.4Z" transform="translate(531.855 -470.285)" fill="#c9c9c9"/>
            <path id="Tracé_147" data-name="Tracé 147" d="M-525.36,487.208l8.9-13.752-6.217-4.143-9.221,9.4Z" transform="translate(531.901 -469.314)" fill="#fff"/>
          </g>
        </g>
      </g>
    </g>
    <path id="Tracé_157" data-name="Tracé 157" d="M64.232,0A64.232,64.232,0,1,1,0,64.232,64.232,64.232,0,0,1,64.232,0Z" transform="translate(-534.001 334.167)" fill="#fff"/>
    <g id="Groupe_99" data-name="Groupe 99" transform="translate(-534.001 334.432)">
      <g id="Groupe_98" data-name="Groupe 98" transform="translate(0)" clip-path="url(#clip-path-2)">
        <g id="Groupe_97" data-name="Groupe 97" transform="translate(17.591 16.405)">
          <path id="Tracé_148" data-name="Tracé 148" d="M-444.727,486.568c4.867-4.6,18.386-9.9,27.4-13.078,9.125-3.216,10.432-17.226,9.7-25.6l20.369-1.439c-.728,8.377-.2,23.321,8.93,27.043s20.8,9.117,26.325,13.573c-9.5,9.959-22.464,17.681-37.211,19.345h-14.081C-417.579,504.794-435.072,496.587-444.727,486.568Z" transform="translate(445.432 -398.614)" fill="#28383f" fill-rule="evenodd"/>
          <path id="Tracé_149" data-name="Tracé 149" d="M-387.039,495.387c-8.265-3.293-18.48-4.163-19.862-16.288,4.71-1.659,7.336-6.194,8.676-11.346a98.574,98.574,0,0,1,11.186-.621,98.624,98.624,0,0,1,11.188.621c1.339,5.152,3.965,9.687,8.676,11.346C-368.557,491.224-378.773,492.094-387.039,495.387Z" transform="translate(435.175 -404.223)" fill="#fff" fill-rule="evenodd"/>
          <path id="Tracé_150" data-name="Tracé 150" d="M-372.919,491.377c-8.265-3.293-23.449-18.472-22.108-23.624a98.574,98.574,0,0,1,11.186-.621,98.623,98.623,0,0,1,11.188.621c1.339,5.152,3.965,9.687,8.676,11.346C-364.835,484.11-364.655,488.084-372.919,491.377Z" transform="translate(431.978 -404.223)" fill="#d5cdbb" fill-rule="evenodd"/>
          <path id="Tracé_151" data-name="Tracé 151" d="M-365.351,410.827c5.807,4.687,3.766,19.205-3.359,20.371-4.065,9.059-11.535,15.851-21.778,15.851s-17.711-6.791-21.776-15.851c-7.125-1.165-9.167-15.684-3.358-20.371,1.187-13.276,9.078-25.121,25.134-25.121S-366.54,397.55-365.351,410.827Z" transform="translate(438.457 -382.143)" fill="#ffcf98" fill-rule="evenodd"/>
          <path id="Tracé_152" data-name="Tracé 152" d="M-410.476,412.2c.287,6.511-.375,4.816-1.552,1.362-.625-1.837-1.586-3.649-3.035-3.654-1.023,0-2.967,3.813-3.288,4.5-.12-3.707.466-9.376,2.835-16.9,6.823-21.673,43.371-22.5,50.685-.809,2.653,7.864,2.1,11.829,2.27,16.769-.524-1.26-1.956-3.559-2.977-3.556-1.45.005-2.409,1.817-3.036,3.654-1.178,3.454-1.732,5.149-1.445-1.362C-368.419,375.975-412.084,375.823-410.476,412.2Z" transform="translate(438.284 -380.822)" fill="#432717" fill-rule="evenodd"/>
          <path id="Tracé_153" data-name="Tracé 153" d="M-408.212,411.247c-.076-4.641.584-8.659,2.5-11.59,1.854-2.838,3.761-4.25,9.147-2.833a36.78,36.78,0,0,0,9.177,1.089,36.658,36.658,0,0,0,9.213-1.1c4.694-1.242,5.907-.042,7.8,2.5,2.257,3.03,3.154,7.175,2.977,11.873,10.771-13.071-.538-30.365-20.5-30.372S-412.432,397.671-408.212,411.247Z" transform="translate(435.921 -380.818)" fill="#432717" fill-rule="evenodd"/>
          <path id="Tracé_154" data-name="Tracé 154" d="M-387.82,444.42c5.836-.906,9.763-1.886,12.027-.148a4.556,4.556,0,0,1,.464.411c6.465,3.708,8.413-10.333,9.241,1.021s-13.411,22.1-21.238,22.1q-.251,0-.493-.01v-9.15c1.523.128,2.582,1.961,4.216,1.535,5.488-1.434,8.078-6.654,8.091-9.407.013-3.67-6.189-2.916-12.306-2.821Zm-12.489.263a4.524,4.524,0,0,1,.463-.411c2.281-1.754,5.977-.743,11.889.168l.138-.02v3.533l-.363,0c-5.924.066-11.639-.835-11.924,2.4-.246,2.786,1.928,8.317,7.724,9.825,1.7.441,2.772-1.54,4.393-1.54.058,0,.114,0,.17.009v9.15l-.17-.01c-.215.013-.436.02-.665.02-7.828,0-22.066-10.749-21.237-22.1S-406.776,448.392-400.309,444.684Z" transform="translate(435.996 -397.186)" fill="#432717"/>
          <g id="Groupe_96" data-name="Groupe 96" transform="translate(0 74.782)">
            <path id="Tracé_155" data-name="Tracé 155" d="M-367.805,483.423h-12.088l-4.1,27.807c-4.45.685-23.366.653-27.987-.088l-3.652-27.719h-13.814A16.3,16.3,0,0,0-445.7,499.675v13.392c11.177,4.664,28,7.633,46.82,7.633,19.106,0,36.15-3.061,47.322-7.847V499.675A16.3,16.3,0,0,0-367.805,483.423Z" transform="translate(445.695 -483.423)" fill="#dedede" fill-rule="evenodd"/>
          </g>
        </g>
      </g>
    </g>
  </g>
</svg>
