<svg xmlns="http://www.w3.org/2000/svg" width="155.654" height="155.654" viewBox="0 0 155.654 155.654">
  <g id="Groupe_72" data-name="Groupe 72" transform="translate(-200 -380)">
    <circle id="Ellipse_11" data-name="Ellipse 11" cx="77.827" cy="77.827" r="77.827" transform="translate(200 380)" fill="#fff"/>
    <g id="Groupe_71" data-name="Groupe 71" transform="translate(268.164 401.595)">
      <g id="Groupe_70" data-name="Groupe 70">
        <g id="Groupe_55" data-name="Groupe 55" transform="translate(6.919 89.115)">
          <path id="Tracé_94" data-name="Tracé 94" d="M256.54,470.413a4.164,4.164,0,0,1-4.151,4.153h0a4.165,4.165,0,0,1-4.151-4.153V455.277a4.162,4.162,0,0,1,4.151-4.151h0a4.161,4.161,0,0,1,4.151,4.151Z" transform="translate(-248.237 -451.126)" fill="#e3eff5"/>
          <path id="Tracé_95" data-name="Tracé 95" d="M252.388,474.566h0a4.165,4.165,0,0,1-4.151-4.153V455.277a4.162,4.162,0,0,1,4.151-4.151h0Z" transform="translate(-248.237 -451.126)" fill="#d4dbde"/>
        </g>
        <path id="Tracé_96" data-name="Tracé 96" d="M265.934,479.672a11.1,11.1,0,0,1-11.072,11.07h0a11.1,11.1,0,0,1-11.07-11.07V404.944a11.1,11.1,0,0,1,11.07-11.07h0a11.105,11.105,0,0,1,11.072,11.07Z" transform="translate(-243.792 -393.874)" fill="#e3eff5"/>
        <path id="Tracé_97" data-name="Tracé 97" d="M254.862,490.742h0a11.1,11.1,0,0,1-11.07-11.07V404.944a11.1,11.1,0,0,1,11.07-11.07v96.868Z" transform="translate(-243.792 -393.874)" fill="#d4dbde"/>
        <g id="Groupe_62" data-name="Groupe 62" transform="translate(5.535 13.351)">
          <g id="Groupe_56" data-name="Groupe 56">
            <rect id="Rectangle_1482" data-name="Rectangle 1482" width="11.071" height="1.383" fill="#c8cdcf"/>
            <rect id="Rectangle_1483" data-name="Rectangle 1483" width="5.522" height="1.383" fill="#a0a2a3"/>
          </g>
          <g id="Groupe_57" data-name="Groupe 57" transform="translate(0 8.303)">
            <rect id="Rectangle_1484" data-name="Rectangle 1484" width="11.071" height="1.383" fill="#c8cdcf"/>
            <rect id="Rectangle_1485" data-name="Rectangle 1485" width="5.522" height="1.383" fill="#a0a2a3"/>
          </g>
          <g id="Groupe_58" data-name="Groupe 58" transform="translate(0 16.605)">
            <rect id="Rectangle_1486" data-name="Rectangle 1486" width="11.071" height="1.383" fill="#c8cdcf"/>
            <rect id="Rectangle_1487" data-name="Rectangle 1487" width="5.522" height="1.383" fill="#a0a2a3"/>
          </g>
          <g id="Groupe_59" data-name="Groupe 59" transform="translate(0 24.908)">
            <rect id="Rectangle_1488" data-name="Rectangle 1488" width="11.071" height="1.385" fill="#c8cdcf"/>
            <rect id="Rectangle_1489" data-name="Rectangle 1489" width="5.522" height="1.385" fill="#a0a2a3"/>
          </g>
          <g id="Groupe_60" data-name="Groupe 60" transform="translate(0 33.212)">
            <rect id="Rectangle_1490" data-name="Rectangle 1490" width="11.071" height="1.383" fill="#c8cdcf"/>
            <rect id="Rectangle_1491" data-name="Rectangle 1491" width="5.522" height="1.383" fill="#a0a2a3"/>
          </g>
          <g id="Groupe_61" data-name="Groupe 61" transform="translate(0 41.514)">
            <rect id="Rectangle_1492" data-name="Rectangle 1492" width="11.071" height="1.385" fill="#c8cdcf"/>
            <rect id="Rectangle_1493" data-name="Rectangle 1493" width="5.522" height="1.385" fill="#a0a2a3"/>
          </g>
        </g>
        <g id="Groupe_67" data-name="Groupe 67" transform="translate(5.535 63.169)">
          <g id="Groupe_63" data-name="Groupe 63">
            <rect id="Rectangle_1494" data-name="Rectangle 1494" width="11.071" height="1.383" fill="#c8cdcf"/>
            <rect id="Rectangle_1495" data-name="Rectangle 1495" width="5.522" height="1.383" fill="#a0a2a3"/>
          </g>
          <g id="Groupe_64" data-name="Groupe 64" transform="translate(0 8.303)">
            <rect id="Rectangle_1496" data-name="Rectangle 1496" width="11.071" height="1.383" fill="#c8cdcf"/>
            <rect id="Rectangle_1497" data-name="Rectangle 1497" width="5.522" height="1.383" fill="#a0a2a3"/>
          </g>
          <g id="Groupe_65" data-name="Groupe 65" transform="translate(0 16.605)">
            <rect id="Rectangle_1498" data-name="Rectangle 1498" width="11.071" height="1.383" fill="#c8cdcf"/>
            <rect id="Rectangle_1499" data-name="Rectangle 1499" width="5.522" height="1.383" fill="#a0a2a3"/>
          </g>
          <g id="Groupe_66" data-name="Groupe 66" transform="translate(0 24.908)">
            <rect id="Rectangle_1500" data-name="Rectangle 1500" width="11.071" height="1.383" fill="#c8cdcf"/>
            <rect id="Rectangle_1501" data-name="Rectangle 1501" width="5.522" height="1.383" fill="#a0a2a3"/>
          </g>
        </g>
        <g id="Groupe_68" data-name="Groupe 68" transform="translate(9.686 7.728)">
          <rect id="Rectangle_1502" data-name="Rectangle 1502" width="2.768" height="93.582" fill="#c8cdcf"/>
          <rect id="Rectangle_1503" data-name="Rectangle 1503" width="1.384" height="93.582" fill="#a0a2a3"/>
        </g>
        <g id="Groupe_69" data-name="Groupe 69" transform="translate(9.686 59.016)">
          <rect id="Rectangle_1504" data-name="Rectangle 1504" width="2.768" height="42.294" fill="#4dc1e1"/>
          <rect id="Rectangle_1505" data-name="Rectangle 1505" width="1.384" height="42.294" fill="#419cb2"/>
        </g>
        <path id="Tracé_98" data-name="Tracé 98" d="M251.894,471.7a2.771,2.771,0,0,1-2.768-2.768v-12.37a2.768,2.768,0,0,1,5.537,0v12.37A2.773,2.773,0,0,1,251.894,471.7Z" transform="translate(-240.823 -360.527)" fill="#4dc1e1"/>
        <path id="Tracé_99" data-name="Tracé 99" d="M251.894,471.7a2.771,2.771,0,0,1-2.768-2.768v-12.37a2.77,2.77,0,0,1,2.768-2.766Z" transform="translate(-240.823 -360.527)" fill="#419cb2"/>
      </g>
    </g>
  </g>
</svg>
