<svg xmlns="http://www.w3.org/2000/svg" width="20.622" height="20.622" viewBox="0 0 20.622 20.622">
  <path id="np_wind_1909329_000000" d="M4.167,10.261a.468.468,0,0,1,.468-.468H14.01a2.344,2.344,0,1,0-2.344-2.344.469.469,0,0,1-.938,0,3.281,3.281,0,1,1,3.281,3.28H4.635a.468.468,0,0,1-.468-.468Zm.468,3.281H21.509a3.281,3.281,0,1,0-3.28-3.28.468.468,0,1,0,.937,0A2.344,2.344,0,1,1,21.509,12.6H4.636a.468.468,0,1,0,0,.937Zm16.873,1.874H4.636a.468.468,0,0,0,0,.937H21.509A2.344,2.344,0,1,1,19.165,18.7a.468.468,0,1,0-.937,0,3.281,3.281,0,1,0,3.28-3.28Zm-7.5,2.812H4.636a.468.468,0,0,0,0,.937H14.01a2.344,2.344,0,1,1-2.344,2.344.469.469,0,0,0-.938,0,3.281,3.281,0,1,0,3.281-3.28Z" transform="translate(-4.167 -4.168)" fill="#002395"/>
</svg>
