<svg xmlns="http://www.w3.org/2000/svg" width="31.74" height="18.67" viewBox="0 0 31.74 18.67">
  <path id="np_bump_979071_000000" d="M11.359,21,9.769,23.389H.934a.934.934,0,1,0,0,1.867h9.335a.936.936,0,0,0,.777-.415l1.589-2.385H19.1l1.589,2.385a.936.936,0,0,0,.777.415h9.335a.934.934,0,0,0,0-1.867H21.971L20.381,21a.929.929,0,0,0-.776-.415H12.136a.929.929,0,0,0-.776.415Zm3.577,9.306v8.014a.934.934,0,0,0,1.867,0V30.311l1.206,1.206a.933.933,0,0,0,1.32-1.319l-2.8-2.8a.932.932,0,0,0-1.319,0l-2.8,2.8a.933.933,0,0,0,1.32,1.319Z" transform="translate(0 -20.589)" fill="#002395"/>
</svg>
