<svg xmlns="http://www.w3.org/2000/svg" width="17.914" height="17.928" viewBox="0 0 17.914 17.928">
  <g id="np_female_1819685_000000" transform="translate(-8.747 -8.705)">
    <path id="Tracé_255" data-name="Tracé 255" d="M35.666,21.359a7.366,7.366,0,0,0,2.051-3.928,7.5,7.5,0,0,0,.064-2.186,7.746,7.746,0,0,0-.236-1.2,8.2,8.2,0,0,0-.427-1.113A7.408,7.408,0,0,0,27.649,9.25a7.718,7.718,0,0,0-1.09.543,8.229,8.229,0,0,0-1,.734,7.35,7.35,0,0,0-2.33,3.8,7.438,7.438,0,0,0,.233,4.332,7.821,7.821,0,0,0,.507,1.1,7.956,7.956,0,0,0,.7,1.013,7.311,7.311,0,0,0,1.7,1.542,7.4,7.4,0,0,0,8.367-.174,8.157,8.157,0,0,0,.931-.788.848.848,0,1,0-1.2-1.2,6.7,6.7,0,0,1-.628.553c.058-.044.114-.089.171-.134a6.615,6.615,0,0,1-1.448.848c.068-.027.136-.058.2-.085a6.606,6.606,0,0,1-1.694.462c.075-.01.151-.021.225-.03a6.68,6.68,0,0,1-1.745,0c.075.01.151.021.225.03a6.606,6.606,0,0,1-1.694-.462c.068.027.136.058.2.085a6.738,6.738,0,0,1-1.448-.848c.058.044.114.089.171.134a6.732,6.732,0,0,1-1.18-1.18c.044.058.089.114.134.171a6.615,6.615,0,0,1-.848-1.448c.027.068.058.136.085.2a6.606,6.606,0,0,1-.462-1.694c.01.075.021.151.03.225a6.68,6.68,0,0,1,0-1.745c-.01.075-.021.151-.03.225a6.605,6.605,0,0,1,.462-1.694c-.027.068-.058.136-.085.2a6.738,6.738,0,0,1,.848-1.448c-.044.058-.089.114-.134.171a6.732,6.732,0,0,1,1.18-1.18c-.058.044-.114.089-.171.134a6.615,6.615,0,0,1,1.448-.848c-.068.027-.136.058-.2.085a6.606,6.606,0,0,1,1.694-.462c-.075.01-.151.021-.225.03a6.68,6.68,0,0,1,1.745,0c-.075-.01-.151-.021-.225-.03a6.606,6.606,0,0,1,1.694.462c-.068-.027-.136-.058-.2-.085a6.738,6.738,0,0,1,1.448.848c-.058-.044-.114-.089-.171-.134a6.732,6.732,0,0,1,1.18,1.18c-.044-.058-.089-.114-.134-.171a6.615,6.615,0,0,1,.848,1.448c-.027-.068-.058-.136-.085-.2a6.606,6.606,0,0,1,.462,1.694c-.01-.075-.021-.151-.03-.225a6.68,6.68,0,0,1,0,1.745c.01-.075.021-.151.03-.225a6.605,6.605,0,0,1-.462,1.694c.027-.068.058-.136.085-.2a6.738,6.738,0,0,1-.848,1.448c.044-.058.089-.114.134-.171a6.708,6.708,0,0,1-.553.628.848.848,0,0,0,1.2,1.2Z" transform="translate(-11.172)" fill="#002395"/>
    <path id="Tracé_256" data-name="Tracé 256" d="M10.526,66.962l1.654-1.654,2.614-2.614.6-.6a.848.848,0,0,0-1.2-1.2L12.54,62.548,9.926,65.162l-.6.6a.848.848,0,0,0,1.2,1.2Z" transform="translate(-0.262 -40.669)" fill="#002395"/>
    <path id="Tracé_257" data-name="Tracé 257" d="M8.989,67.909l1.253,1.253,1.989,1.989.458.458a.848.848,0,1,0,1.2-1.2l-1.253-1.253-1.989-1.989-.458-.458a.848.848,0,0,0-1.2,1.2Z" transform="translate(0 -45.22)" fill="#002395"/>
  </g>
</svg>
