<svg id="medical-condition-cough" xmlns="http://www.w3.org/2000/svg" width="31.796" height="28.291" viewBox="0 0 31.796 28.291">
  <path id="Tracé_200" data-name="Tracé 200" d="M20.3,29.1a.956.956,0,0,0,.956-.956V25.657h.757a4.4,4.4,0,0,0,4.4-4.4V18.777h1.219a1.817,1.817,0,0,0,1.695-2.467q-.369-.959-.719-1.895C25.98,7.43,23.717,1.41,15.582,1.41A11.677,11.677,0,0,0,7.329,21.359v6.767a.956.956,0,1,0,1.911,0V20.952a.96.96,0,0,0-.306-.7A9.765,9.765,0,0,1,15.571,3.322c6.823,0,8.677,4.929,11.241,11.752.223.591.447,1.19.679,1.794H25.457a.956.956,0,0,0-.956.956v3.44a2.488,2.488,0,0,1-2.484,2.484H20.3a.956.956,0,0,0-.956.956v3.44A.956.956,0,0,0,20.3,29.1Z" transform="translate(-3.918 -1.41)" fill="#002395"/>
  <path id="Tracé_201" data-name="Tracé 201" d="M4.361,23.447a1.429,1.429,0,0,0,1.419-1.368.623.623,0,0,0,0-.069V22a.854.854,0,0,0-.013-.135,1.428,1.428,0,0,0-1.421-1.293.932.932,0,0,0-.217.027,1.426,1.426,0,0,0-1.2,1.235.992.992,0,0,0-.015.172v.005a.981.981,0,0,0,.015.172,1.426,1.426,0,0,0,1.208,1.236.936.936,0,0,0,.209.025h.006Z" transform="translate(21.011 3.843)" fill="#ed4e41"/>
  <path id="Tracé_202" data-name="Tracé 202" d="M1.656,20.075a1.014,1.014,0,0,0,.166-.014A1.434,1.434,0,0,0,3.074,18.81a.913.913,0,0,0,.014-.167,1.041,1.041,0,0,0-.014-.167,1.435,1.435,0,0,0-1.252-1.252.986.986,0,0,0-.331,0A1.435,1.435,0,0,0,.238,18.476a.913.913,0,0,0-.014.167,1.041,1.041,0,0,0,.014.167A1.433,1.433,0,0,0,1.49,20.061,1,1,0,0,0,1.656,20.075Z" transform="translate(27.147 2.921)" fill="#ed4e41"/>
  <path id="Tracé_203" data-name="Tracé 203" d="M5.028,19.4A1.431,1.431,0,0,0,6.46,17.974v0a1.433,1.433,0,0,0-1.428-1.436H5.026A1.428,1.428,0,0,0,3.607,17.8a.913.913,0,0,0-.014.167,1.042,1.042,0,0,0,.014.167,1.423,1.423,0,0,0,1.317,1.259.7.7,0,0,0,.1.008h0Z" transform="translate(19.483 2.735)" fill="#ed4e41"/>
  <path id="Tracé_216" data-name="Tracé 216" d="M4.361,23.447a1.429,1.429,0,0,0,1.419-1.368.623.623,0,0,0,0-.069V22a.854.854,0,0,0-.013-.135,1.428,1.428,0,0,0-1.421-1.293.932.932,0,0,0-.217.027,1.426,1.426,0,0,0-1.2,1.235.992.992,0,0,0-.015.172v.005a.981.981,0,0,0,.015.172,1.426,1.426,0,0,0,1.208,1.236.936.936,0,0,0,.209.025h.006Z" transform="translate(26.011 4.843)" fill="#ed4e41"/>
</svg>
