<svg id="focus-eye" xmlns="http://www.w3.org/2000/svg" width="24" height="24" viewBox="0 0 24 24">
  <path id="Tracé_210" data-name="Tracé 210" d="M12,17.25c-4.847,0-7.993-4.637-8.124-4.834a.75.75,0,0,1,0-.832C4.008,11.387,7.155,6.75,12,6.75s7.993,4.637,8.124,4.834a.75.75,0,0,1,0,.832C19.993,12.613,16.85,17.25,12,17.25ZM5.436,12c.888,1.118,3.323,3.75,6.564,3.75s5.676-2.632,6.564-3.75C17.676,10.881,15.24,8.25,12,8.25S6.324,10.881,5.436,12Z" fill="#002395"/>
  <path id="Tracé_211" data-name="Tracé 211" d="M12,14.625A2.625,2.625,0,1,1,14.625,12,2.628,2.628,0,0,1,12,14.625Zm0-3.75A1.125,1.125,0,1,0,13.125,12,1.127,1.127,0,0,0,12,10.875Z" fill="#002395"/>
  <path id="Tracé_212" data-name="Tracé 212" d="M.75,5.25A.75.75,0,0,1,0,4.5V2.25A2.252,2.252,0,0,1,2.25,0H4.5a.75.75,0,0,1,0,1.5H2.25a.75.75,0,0,0-.75.75V4.5A.75.75,0,0,1,.75,5.25Z" fill="#002395"/>
  <path id="Tracé_213" data-name="Tracé 213" d="M23.25,5.25a.75.75,0,0,1-.75-.75V2.25a.75.75,0,0,0-.75-.75H19.5a.75.75,0,0,1,0-1.5h2.25A2.252,2.252,0,0,1,24,2.25V4.5A.75.75,0,0,1,23.25,5.25Z" fill="#002395"/>
  <path id="Tracé_214" data-name="Tracé 214" d="M2.25,24A2.252,2.252,0,0,1,0,21.75V19.5a.75.75,0,0,1,1.5,0v2.25a.75.75,0,0,0,.75.75H4.5a.75.75,0,0,1,0,1.5Z" fill="#002395"/>
  <path id="Tracé_215" data-name="Tracé 215" d="M19.5,24a.75.75,0,0,1,0-1.5h2.25a.75.75,0,0,0,.75-.75V19.5a.75.75,0,0,1,1.5,0v2.25A2.252,2.252,0,0,1,21.75,24Z" fill="#002395"/>
</svg>
