<svg xmlns="http://www.w3.org/2000/svg" xmlns:xlink="http://www.w3.org/1999/xlink" width="155.827" height="155.827" viewBox="0 0 155.827 155.827">
  <defs>
    <clipPath id="clip-path">
      <circle id="Ellipse_10" data-name="Ellipse 10" cx="77.914" cy="77.914" r="77.914" fill="#e8262b"/>
    </clipPath>
  </defs>
  <g id="Groupe_54" data-name="Groupe 54" transform="translate(-380 -20)">
    <g id="Groupe_53" data-name="Groupe 53" transform="translate(380 20)">
      <path id="Tracé_193" data-name="Tracé 193" d="M77.914,0A77.914,77.914,0,1,1,0,77.914,77.914,77.914,0,0,1,77.914,0Z" fill="#fff"/>
      <g id="Groupe_52" data-name="Groupe 52" clip-path="url(#clip-path)">
        <g id="Groupe_51" data-name="Groupe 51" transform="translate(23.849 38.424)">
          <g id="Groupe_50" data-name="Groupe 50" transform="translate(43.478 36.659)">
            <g id="Groupe_48" data-name="Groupe 48">
              <path id="Tracé_77" data-name="Tracé 77" d="M446.077,140.41c-7.841,3.249-11.759,4.874-19.6,8.12-5.633-28.166-4.976-54.79,9.8-80.346C431.558,95.488,433.928,115.484,446.077,140.41Z" transform="translate(-423.206 -68.184)" fill="#bd521a"/>
            </g>
            <g id="Groupe_49" data-name="Groupe 49" transform="translate(0.022 0.246)">
              <path id="Tracé_78" data-name="Tracé 78" d="M432.32,68.342l-.128.051q-1.031,1.8-1.97,3.611l1.613-.623C431.993,70.376,432.141,69.369,432.32,68.342Z" transform="translate(-419.31 -68.342)" fill="#853c18"/>
              <path id="Tracé_79" data-name="Tracé 79" d="M432.373,79.187l-4.8-1.854c-.313.832-.62,1.669-.909,2.5l5.544,2.144C432.245,81.056,432.31,80.122,432.373,79.187Z" transform="translate(-421.3 -63.323)" fill="#853c18"/>
              <path id="Tracé_80" data-name="Tracé 80" d="M425.813,124.548l19.142-7.386c-.556-1.176-1.1-2.351-1.6-3.509l-19.946-7.695q.1,1.47.229,2.94l17.674,6.821-15.972,6.163Q425.565,123.212,425.813,124.548Z" transform="translate(-423.117 -47.342)" fill="#853c18"/>
              <path id="Tracé_81" data-name="Tracé 81" d="M437.375,100.935c-.234-.87-.441-1.736-.65-2.6l-13.505,5.211c.017.938.042,1.881.081,2.824Z" transform="translate(-423.22 -51.598)" fill="#853c18"/>
              <path id="Tracé_82" data-name="Tracé 82" d="M433.486,86.78q-.051-1.407-.061-2.831l-8.535,3.3q-.332,1.54-.611,3.087Z" transform="translate(-422.628 -59.629)" fill="#853c18"/>
              <path id="Tracé_83" data-name="Tracé 83" d="M435.093,95.374l-11.168-4.313q-.185,1.363-.326,2.729l12.049,4.653C435.45,97.419,435.261,96.4,435.093,95.374Z" transform="translate(-423.008 -55.659)" fill="#853c18"/>
            </g>
          </g>
          <path id="Tracé_84" data-name="Tracé 84" d="M440.516,111.877c-19.561,0-27.717,12.731-27.717,12.731h55.432S460.075,111.877,440.516,111.877Z" transform="translate(-385.539 -7.132)" fill="#52290f"/>
          <path id="Tracé_85" data-name="Tracé 85" d="M461.873,65.837a10.229,10.229,0,0,1,1.05.43,15.042,15.042,0,0,1,2.485,1.435,12.429,12.429,0,0,1,4.8,6.447c.055.187.1.376.15.561a40.5,40.5,0,0,1,9.462,1.094,33.792,33.792,0,0,1,1.756-4,15.379,15.379,0,0,1,.9-1.529s.125.185.324.525a11.677,11.677,0,0,1,.731,1.473,14.281,14.281,0,0,1,.736,2.238,13.572,13.572,0,0,1,.341,2.8,57.038,57.038,0,0,1,6.623,3.056l2.57,1.382s-.023-.29-.09-.838a21.731,21.731,0,0,0-.4-2.381A27.2,27.2,0,0,0,485.9,64.98a28.414,28.414,0,0,0-6.242-4.692,30.77,30.77,0,0,0-8.178-3.067,32.846,32.846,0,0,0-9.139-.664,35.814,35.814,0,0,0-8.636,1.677,39.885,39.885,0,0,0-7.23,3.184,43.989,43.989,0,0,0-10.228,7.989,42.889,42.889,0,0,0-5.37,6.878,24.484,24.484,0,0,0-1.566,2.847l4.41-.626c2.749-.39,6.584-.943,10.927-1.527a25.046,25.046,0,0,1-2.443-3.5,15.192,15.192,0,0,1-.782-1.532s.418-.017,1.128.025a19.33,19.33,0,0,1,2.858.377,16.332,16.332,0,0,1,7.5,3.593c3.542-.4,7.151-.764,10.657-.99.238-.016.477-.045.712-.053a34,34,0,0,1-2-6.247A18.606,18.606,0,0,1,461.873,65.837Z" transform="translate(-376.324 -38.058)" fill="#108336"/>
          <path id="Tracé_86" data-name="Tracé 86" d="M419.161,77.833s-.069.094-.2.263a7.431,7.431,0,0,0-.508.767,21.586,21.586,0,0,0-1.406,2.827c-.218.609-.422,1.264-.594,1.948a11.388,11.388,0,0,0-.366,2.163,12.5,12.5,0,0,0,.433,4.658c.059.2.123.4.19.594a51.9,51.9,0,0,0-8.221,7.339,31.273,31.273,0,0,0-3.838-2.615,15.716,15.716,0,0,0-1.677-.849,19.17,19.17,0,0,0,.12,2.481,21.613,21.613,0,0,0,.6,2.56c.139.46.3.933.478,1.406a15.431,15.431,0,0,0,.712,1.457l-1.39,1.924c-.427.628-.789,1.248-1.167,1.826s-.735,1.134-1.063,1.642-.575,1-.834,1.435c-1.01,1.753-1.66,2.777-1.66,2.777s-.51-1.153-1.226-3.366a27.825,27.825,0,0,1-.969-4.119q-.108-.622-.22-1.282c-.078-.444-.087-.9-.129-1.371q-.1-1.421-.151-3.04a34.733,34.733,0,0,1,.821-7.076q.105-.482.212-.969a7.909,7.909,0,0,1,.262-.975q.309-.97.658-1.974a28.693,28.693,0,0,1,1.739-4.03q.255-.51.514-1.024.3-.489.6-.985.615-.989,1.276-1.99c.438-.673.963-1.273,1.465-1.915.257-.316.517-.633.778-.951a11.047,11.047,0,0,1,.823-.921,35.817,35.817,0,0,1,3.676-3.416l1-.795.5-.393.525-.36q1.054-.713,2.144-1.4c.725-.464,1.48-.831,2.219-1.229s1.485-.77,2.239-1.074c.751-.319,1.5-.626,2.247-.921.751-.265,1.5-.5,2.245-.737l1.111-.337,1.109-.273c.737-.173,1.465-.344,2.188-.489,1.451-.237,2.866-.491,4.251-.586a47.151,47.151,0,0,1,7.8-.069,49.828,49.828,0,0,1,6.641.971,45.808,45.808,0,0,1,9.206,2.993,26.085,26.085,0,0,1,3.184,1.655L453,71.941c-1.4.611-3.085,1.349-4.965,2.2s-3.958,1.787-6.152,2.82a25.428,25.428,0,0,0,.145-4.531,14.988,14.988,0,0,0-.2-1.812s-.4.24-1.036.695c-.318.229-.7.5-1.109.843s-.859.745-1.321,1.191a19.908,19.908,0,0,0-2.747,3.29,16.016,16.016,0,0,0-2.005,4.371c-3.508,1.82-7.051,3.73-10.428,5.781l-.681.422a36.663,36.663,0,0,0-.922-3.715,29.6,29.6,0,0,0-1.06-2.973A18.559,18.559,0,0,0,419.161,77.833Z" transform="translate(-394.874 -33.727)" fill="#108336"/>
          <path id="Tracé_87" data-name="Tracé 87" d="M451.018,62.542s.408.019,1.081.112a10.39,10.39,0,0,1,1.186.22c.455.123.954.277,1.473.467a11.89,11.89,0,0,1,3.23,1.78,9.663,9.663,0,0,1,1.5,1.407,11.862,11.862,0,0,1,1.278,1.727c.1.159.189.319.277.48a51.367,51.367,0,0,1,9.114-1.666,32.079,32.079,0,0,1,.418-4.316,16.55,16.55,0,0,1,.377-1.728s.168.129.45.376a10.235,10.235,0,0,1,1.1,1.156,19.338,19.338,0,0,1,1.371,1.828,15.431,15.431,0,0,1,1.244,2.493l1.052-.019.516-.012.5.02,1.887.062c.6.02,1.175.014,1.7.042l1.44.1c1.756.1,2.811.115,2.811.115s-.522-.971-1.65-2.629c-.285-.408-.6-.884-.972-1.357s-.81-.966-1.284-1.5-.986-1.111-1.568-1.681q-.9-.82-1.948-1.708c-.354-.291-.711-.6-1.1-.89s-.8-.553-1.225-.834-.86-.563-1.312-.846c-.226-.139-.452-.288-.689-.421l-.735-.374q-.746-.374-1.538-.746a13.916,13.916,0,0,0-1.639-.695q-.855-.3-1.758-.6a14.759,14.759,0,0,0-1.854-.516q-.961-.206-1.96-.39c-.332-.056-.667-.132-1.008-.165l-1.033-.092q-1.042-.084-2.118-.137c-.714-.009-1.438.034-2.171.067a29.19,29.19,0,0,0-4.435.587c-.743.153-1.468.379-2.207.586l-1.1.333c-.363.125-.717.273-1.075.413a30.136,30.136,0,0,0-7.65,4.351q-.816.654-1.593,1.315c-.51.449-.977.923-1.448,1.382l-.692.693c-.218.238-.427.48-.637.72-.418.48-.826.955-1.215,1.434a36.129,36.129,0,0,0-5.951,11.226,35.049,35.049,0,0,0-1.631,8.265,20.325,20.325,0,0,0-.026,3.123s1.328-.919,3.528-2.375,5.273-3.448,8.768-5.5a27.739,27.739,0,0,1-3.629-2.211,15.685,15.685,0,0,1-1.343-1.071s.365-.17,1-.4a17.536,17.536,0,0,1,2.663-.714,14.252,14.252,0,0,1,7.946.742c.7-.386,1.432-.7,2.136-1.063.351-.193.721-.327,1.078-.5s.707-.351,1.069-.5c.726-.279,1.42-.659,2.144-.916.358-.142.711-.3,1.066-.457.362-.125.718-.26,1.074-.405.193-.084.385-.165.575-.249a41.9,41.9,0,0,1-3.623-5.379A20.1,20.1,0,0,1,451.018,62.542Z" transform="translate(-377.193 -40.78)" fill="#3e9b36"/>
          <path id="Tracé_88" data-name="Tracé 88" d="M430.132,59.017a8.229,8.229,0,0,0-.871-.257,12.057,12.057,0,0,0-2.27-.344,9.945,9.945,0,0,0-6.225,1.63q-.192.136-.374.276a32.549,32.549,0,0,0-6.462-4.047,27.236,27.236,0,0,0,.9-3.38,12.879,12.879,0,0,0,.2-1.406s-.171.053-.466.165a9.392,9.392,0,0,0-1.192.555,11.475,11.475,0,0,0-1.58,1.033,10.8,10.8,0,0,0-1.613,1.579,45.616,45.616,0,0,0-5.667-1.4l-2.3-.421s.157-.17.474-.478a17.5,17.5,0,0,1,1.441-1.289,21.768,21.768,0,0,1,11.408-4.762,22.72,22.72,0,0,1,6.249.189,24.566,24.566,0,0,1,6.646,2.171,26.161,26.161,0,0,1,6.046,4.154,28.666,28.666,0,0,1,4.561,5.365,31.976,31.976,0,0,1,2.928,5.6,35.182,35.182,0,0,1,2.4,10.108,34.4,34.4,0,0,1-.081,6.986,19.4,19.4,0,0,1-.446,2.563l-2.443-2.6c-1.522-1.619-3.645-3.883-6.066-6.419a20.085,20.085,0,0,0,3.277-.968,11.722,11.722,0,0,0,1.256-.569s-.253-.218-.718-.547a15.694,15.694,0,0,0-1.974-1.194,13.073,13.073,0,0,0-6.484-1.5c-2.013-2.023-4.089-4.053-6.169-5.946-.14-.128-.274-.268-.418-.39a27.25,27.25,0,0,0,4.371-2.908A14.888,14.888,0,0,0,430.132,59.017Z" transform="translate(-391.445 -43.72)" fill="#108336"/>
          <path id="Tracé_89" data-name="Tracé 89" d="M423.678,66.456a9.142,9.142,0,0,0-.937.424,13.478,13.478,0,0,0-2.2,1.384,11.251,11.251,0,0,0-4.131,6c-.044.171-.081.343-.117.513a36.736,36.736,0,0,0-8.53,1.307,30.412,30.412,0,0,0-1.723-3.565,14.229,14.229,0,0,0-.865-1.354s-.108.173-.277.486a10.547,10.547,0,0,0-.612,1.357,12.956,12.956,0,0,0-.591,2.052,12.393,12.393,0,0,0-.215,2.546,51.655,51.655,0,0,0-5.893,2.989c-1.451.852-2.28,1.337-2.28,1.337s.011-.262.053-.76A20.349,20.349,0,0,1,395.642,79,24.642,24.642,0,0,1,401.9,66.485a25.816,25.816,0,0,1,5.495-4.457,27.82,27.82,0,0,1,7.3-3.051,29.676,29.676,0,0,1,8.251-.907,32.493,32.493,0,0,1,7.875,1.226,36.1,36.1,0,0,1,6.652,2.641,39.886,39.886,0,0,1,9.53,6.888,38.987,38.987,0,0,1,5.092,6.048,21.972,21.972,0,0,1,1.512,2.526L449.6,76.98c-2.5-.262-5.993-.634-9.943-1.016a22.593,22.593,0,0,0,2.093-3.254A13.27,13.27,0,0,0,442.4,71.3s-.379,0-1.021.061a17.76,17.76,0,0,0-2.573.438,14.783,14.783,0,0,0-6.668,3.506c-3.221-.248-6.5-.452-9.682-.538-.218-.006-.433-.026-.647-.025a30.816,30.816,0,0,0,1.6-5.722A16.855,16.855,0,0,0,423.678,66.456Z" transform="translate(-395.305 -37.179)" fill="#3e9b36"/>
          <path id="Tracé_90" data-name="Tracé 90" d="M442.247,65.618a28.055,28.055,0,0,0-1.2-5.393,25.088,25.088,0,0,0-2.638-5.56,22.949,22.949,0,0,0-4.164-4.874,21.457,21.457,0,0,0-5.119-3.335,19.865,19.865,0,0,0-5.231-1.572,19.025,19.025,0,0,0-10.705,1.44,15.333,15.333,0,0,0-1.508.762c-.337.189-.508.3-.508.3l1.843.873a40.106,40.106,0,0,1,4.468,2.464,9.571,9.571,0,0,1,1.717-.968,9.973,9.973,0,0,1,1.568-.514,7.991,7.991,0,0,1,1.133-.2c.274-.028.43-.036.43-.036a10.908,10.908,0,0,1-.488,1.141,23.448,23.448,0,0,1-1.527,2.649,28.373,28.373,0,0,1,4.539,4.877c.123-.051.249-.1.377-.148a8.688,8.688,0,0,1,5.624.033,10.459,10.459,0,0,1,1.839.8,7.314,7.314,0,0,1,.678.415,12.913,12.913,0,0,1-1.75.94,23.685,23.685,0,0,1-4.348,1.466c.094.136.174.284.265.424,1.328,2.068,2.621,4.251,3.863,6.414a11.436,11.436,0,0,1,5.133,2.733,13.673,13.673,0,0,1,1.4,1.454c.316.382.482.625.482.625a10.574,10.574,0,0,1-1.189.195,17.558,17.558,0,0,1-2.986.076c1.473,2.688,2.75,5.078,3.67,6.789s1.476,2.744,1.476,2.744a17.148,17.148,0,0,0,.954-2.063,29.952,29.952,0,0,0,1.65-5.878A30.79,30.79,0,0,0,442.247,65.618Z" transform="translate(-386.448 -44.658)" fill="#3e9b36"/>
          <path id="Tracé_91" data-name="Tracé 91" d="M460.441,78.075l.171.229a6.765,6.765,0,0,1,.443.668,18.647,18.647,0,0,1,1.223,2.461c.19.531.368,1.1.519,1.7a10.114,10.114,0,0,1,.318,1.884,10.884,10.884,0,0,1-.379,4.058c-.051.175-.106.347-.164.517a45.261,45.261,0,0,1,7.16,6.392,27.383,27.383,0,0,1,3.341-2.278,13.623,13.623,0,0,1,1.462-.739,16.659,16.659,0,0,1-.1,2.16,18.68,18.68,0,0,1-.52,2.23c-.12.4-.257.813-.416,1.225a13.022,13.022,0,0,1-.622,1.268l1.214,1.677c.371.547.684,1.086,1.016,1.591s.639.988.926,1.429.5.873.726,1.251c.877,1.526,1.445,2.418,1.445,2.418s.443-1,1.067-2.931a24.3,24.3,0,0,0,.845-3.589q.094-.54.192-1.116c.069-.386.076-.781.114-1.2.056-.826.1-1.709.129-2.648a30.2,30.2,0,0,0-.714-6.163c-.061-.28-.123-.561-.185-.845a7.067,7.067,0,0,0-.228-.851q-.269-.841-.572-1.717a25.256,25.256,0,0,0-1.515-3.511q-.224-.444-.45-.891c-.173-.285-.347-.57-.522-.859-.358-.573-.728-1.153-1.113-1.733s-.838-1.109-1.275-1.669q-.339-.411-.678-.827a10.036,10.036,0,0,0-.717-.8,30.922,30.922,0,0,0-3.2-2.973c-.287-.231-.577-.461-.866-.692l-.441-.344-.457-.313q-.916-.619-1.867-1.222c-.633-.405-1.29-.723-1.932-1.071s-1.295-.67-1.953-.935-1.306-.545-1.956-.8c-.654-.229-1.309-.438-1.956-.64q-.486-.15-.968-.295l-.966-.237c-.642-.151-1.278-.3-1.907-.427-1.262-.206-2.5-.427-3.7-.51a41.086,41.086,0,0,0-6.791-.061,43.629,43.629,0,0,0-5.784.846,39.889,39.889,0,0,0-8.019,2.609,22.846,22.846,0,0,0-2.774,1.44l3.93,1.7c1.223.533,2.69,1.176,4.326,1.917s3.447,1.555,5.357,2.456a22.033,22.033,0,0,1-.126-3.947,12.991,12.991,0,0,1,.176-1.579s.349.209.9.606c.277.2.608.439.968.734s.748.648,1.15,1.036a17.365,17.365,0,0,1,2.394,2.866,13.894,13.894,0,0,1,1.745,3.807c3.056,1.585,6.143,3.249,9.085,5.036l.592.368a31.613,31.613,0,0,1,.8-3.237,25.8,25.8,0,0,1,.924-2.59A16.23,16.23,0,0,1,460.441,78.075Z" transform="translate(-377.589 -32.613)" fill="#3e9b36"/>
          <path id="Tracé_92" data-name="Tracé 92" d="M433.564,69.557c-3.592-2.073-8.394-.477-10.73,3.565s-1.314,9,2.278,11.075,8.394.477,10.729-3.565S437.156,71.631,433.564,69.557Z" transform="translate(-380.636 -31.265)" fill="#52290f"/>
          <path id="Tracé_93" data-name="Tracé 93" d="M432.906,70.331c4.006-1.072,8.234,1.713,9.442,6.222s-1.06,9.033-5.066,10.107-8.232-1.713-9.44-6.221S428.9,71.4,432.906,70.331Z" transform="translate(-377.322 -30.454)" fill="#744a28"/>
        </g>
      </g>
    </g>
  </g>
</svg>
