<svg id="medical-condition-cough" xmlns="http://www.w3.org/2000/svg" width="29.942" height="27.687" viewBox="0 0 29.942 27.687">
  <path id="Tracé_200" data-name="Tracé 200" d="M20.3,29.1a.956.956,0,0,0,.956-.956V25.657h.757a4.4,4.4,0,0,0,4.4-4.4V18.777h1.219a1.817,1.817,0,0,0,1.695-2.467q-.369-.959-.719-1.895C25.98,7.43,23.717,1.41,15.582,1.41A11.677,11.677,0,0,0,7.329,21.359v6.767a.956.956,0,1,0,1.911,0V20.952a.96.96,0,0,0-.306-.7A9.765,9.765,0,0,1,15.571,3.322c6.823,0,8.677,4.929,11.241,11.752.223.591.447,1.19.679,1.794H25.457a.956.956,0,0,0-.956.956v3.44a2.488,2.488,0,0,1-2.484,2.484H20.3a.956.956,0,0,0-.956.956v3.44A.956.956,0,0,0,20.3,29.1Z" transform="translate(-3.918 -1.41)" fill="#002395"/>
  <path id="Tracé_203" data-name="Tracé 203" d="M5.028,19.4A1.431,1.431,0,0,0,6.46,17.974v0a1.433,1.433,0,0,0-1.428-1.436H5.026A1.428,1.428,0,0,0,3.607,17.8a.913.913,0,0,0-.014.167,1.042,1.042,0,0,0,.014.167,1.423,1.423,0,0,0,1.317,1.259.7.7,0,0,0,.1.008h0Z" transform="translate(19.483 3.735)" fill="#002395"/>
  <path id="Tracé_230" data-name="Tracé 230" d="M5.028,19.4A1.431,1.431,0,0,0,6.46,17.974v0a1.433,1.433,0,0,0-1.428-1.436H5.026A1.428,1.428,0,0,0,3.607,17.8a.913.913,0,0,0-.014.167,1.042,1.042,0,0,0,.014.167,1.423,1.423,0,0,0,1.317,1.259.7.7,0,0,0,.1.008h0Z" transform="translate(23.483 1.735)" fill="#002395"/>
  <path id="Tracé_231" data-name="Tracé 231" d="M5.028,19.4A1.431,1.431,0,0,0,6.46,17.974v0a1.433,1.433,0,0,0-1.428-1.436H5.026A1.428,1.428,0,0,0,3.607,17.8a.913.913,0,0,0-.014.167,1.042,1.042,0,0,0,.014.167,1.423,1.423,0,0,0,1.317,1.259.7.7,0,0,0,.1.008h0Z" transform="translate(23.483 6.735)" fill="#002395"/>
</svg>
