<svg xmlns="http://www.w3.org/2000/svg" width="26.733" height="28.129" viewBox="0 0 26.733 28.129">
  <g id="medical-condition-flu" transform="translate(0.79)">
    <path id="Tracé_217" data-name="Tracé 217" d="M5.1,28.129a.879.879,0,0,0,.879-.879V19.907a.883.883,0,0,0-.281-.645,10.1,10.1,0,0,1,6.862-17.5c7.048,0,8.954,5.064,11.593,12.073.248.659.5,1.322.756,1.991H22.68a.879.879,0,0,0-.879.879v3.516a2.64,2.64,0,0,1-2.637,2.637H17.405a.879.879,0,0,0-.879.879V27.25a.879.879,0,0,0,1.758,0V24.613h.879a4.4,4.4,0,0,0,4.4-4.4V17.581h1.348a1.787,1.787,0,0,0,.628-.116,1.763,1.763,0,0,0,1.014-2.273c-.258-.667-.506-1.327-.75-1.976C23.126,6.123,20.822,0,12.569,0A11.855,11.855,0,0,0,4.219,20.282V27.25A.88.88,0,0,0,5.1,28.129Z" transform="translate(-0.723 0)" fill="#002395"/>
    <path id="Tracé_220" data-name="Tracé 220" d="M14.069,16.512a1.315,1.315,0,0,0,1.3-1.166.907.907,0,0,0,0-.3,1.321,1.321,0,0,0-1.149-1.152.866.866,0,0,0-.156-.014.879.879,0,0,0-.157.014,1.322,1.322,0,0,0-1.147,1.142.87.87,0,0,0-.015.163,1.321,1.321,0,0,0,1.32,1.319Z" transform="translate(-13.539 11.387)" fill="#002395"/>
    <path id="Tracé_221" data-name="Tracé 221" d="M8.818,16.512A.932.932,0,0,0,8.97,16.5a1.319,1.319,0,0,0,1.152-1.151.863.863,0,0,0,.014-.155.958.958,0,0,0-.013-.154,1.32,1.32,0,0,0-1.152-1.152.907.907,0,0,0-.3,0A1.32,1.32,0,0,0,7.514,15.04a.75.75,0,0,0-.015.154.958.958,0,0,0,.013.154A1.318,1.318,0,0,0,8.664,16.5.841.841,0,0,0,8.818,16.512Z" transform="translate(6.864 -3.613)" fill="#002395"/>
    <path id="Tracé_222" data-name="Tracé 222" d="M11.971,12.749A1.319,1.319,0,0,0,13.122,11.6a.845.845,0,0,0,0-.307,1.318,1.318,0,0,0-1.151-1.151.845.845,0,0,0-.307,0,1.322,1.322,0,0,0-1.152,1.152.907.907,0,0,0,0,.3,1.322,1.322,0,0,0,1.152,1.152A1.919,1.919,0,0,0,11.971,12.749Z" transform="translate(0.348 -4.258)" fill="#002395"/>
    <path id="Tracé_223" data-name="Tracé 223" d="M14.069,16.512a1.315,1.315,0,0,0,1.3-1.166.907.907,0,0,0,0-.3,1.321,1.321,0,0,0-1.149-1.152.866.866,0,0,0-.156-.014.879.879,0,0,0-.157.014,1.322,1.322,0,0,0-1.147,1.142.87.87,0,0,0-.015.163,1.321,1.321,0,0,0,1.32,1.319Z" transform="translate(-4.539 -3.613)" fill="#002395"/>
  </g>
</svg>
