<svg xmlns="http://www.w3.org/2000/svg" width="34.43" height="27.974" viewBox="0 0 34.43 27.974">
  <g id="Groupe_141" data-name="Groupe 141" transform="translate(-57 -537)">
    <g id="medical-condition-cough" transform="translate(57 537)">
      <path id="Tracé_200" data-name="Tracé 200" d="M20.3,29.1a.956.956,0,0,0,.956-.956V25.657h.757a4.4,4.4,0,0,0,4.4-4.4V18.777h1.219a1.817,1.817,0,0,0,1.695-2.467q-.369-.959-.719-1.895C25.98,7.43,23.717,1.41,15.582,1.41A11.677,11.677,0,0,0,7.329,21.359v6.767a.956.956,0,1,0,1.911,0V20.952a.96.96,0,0,0-.306-.7A9.765,9.765,0,0,1,15.571,3.322c6.823,0,8.677,4.929,11.241,11.752.223.591.447,1.19.679,1.794H25.457a.956.956,0,0,0-.956.956v3.44a2.488,2.488,0,0,1-2.484,2.484H20.3a.956.956,0,0,0-.956.956v3.44A.956.956,0,0,0,20.3,29.1Z" transform="translate(-3.918 -1.41)" fill="#002395"/>
    </g>
    <path id="Tracé_252" data-name="Tracé 252" d="M10.541,76.3H9.211A4.077,4.077,0,0,0,5.4,72.013v-1.33a5.4,5.4,0,0,1,5.144,5.62ZM9.324,67.841l.492-1.235a11.133,11.133,0,0,1,5.012,3.917l-1.088.766a9.787,9.787,0,0,0-4.416-3.447ZM14.051,76.3h-1.33A7.07,7.07,0,0,0,5.4,69.535V68.2A8.4,8.4,0,0,1,14.051,76.3Z" transform="translate(76.602 488.672)" fill="#002395"/>
  </g>
</svg>
