<svg xmlns="http://www.w3.org/2000/svg" width="21.655" height="27.504" viewBox="0 0 21.655 27.504">
  <path id="np_front-torso_230320_000000" d="M22.985,20.523a.878.878,0,1,1-1.241,0,.908.908,0,0,1,1.241,0ZM34.655,8.706V23.318a3.494,3.494,0,0,1-1.941,3.141l-6.738,3.369a6.456,6.456,0,0,1-6.9-.73l-3.292-2.634a3.5,3.5,0,0,1-1.319-2.747V16.022a10.246,10.246,0,0,0-.7-3.473A11.376,11.376,0,0,1,13,8.707a3.512,3.512,0,0,1,3.512-3.512h2.926a2.3,2.3,0,0,0,1.781-.926,3.316,3.316,0,0,1,5.217,0,2.3,2.3,0,0,0,1.781.926h2.926a3.512,3.512,0,0,1,3.512,3.512ZM33.484,23.318V22.09L31.4,23.13a.585.585,0,0,1-.522-1.047l2.6-1.3V19.165L31.4,20.2a.6.6,0,0,1-.261.061.585.585,0,0,1-.262-1.109l2.6-1.3V16.238L31.4,17.279a.6.6,0,0,1-.261.061.585.585,0,0,1-.262-1.109l2.6-1.3V8.706a2.342,2.342,0,0,0-2.341-2.341H28.217A3.429,3.429,0,0,1,25.608,5.1a2.176,2.176,0,0,0-3.562,0,3.429,3.429,0,0,1-2.609,1.269H16.512a2.342,2.342,0,0,0-2.341,2.341,10.246,10.246,0,0,0,.7,3.473,11.376,11.376,0,0,1,.761,3.843v7.694a2.336,2.336,0,0,0,.88,1.832l3.292,2.634a5.279,5.279,0,0,0,5.646.6l6.738-3.369a2.329,2.329,0,0,0,1.294-2.094Zm-5.267-8.612H25.291a.585.585,0,0,0,0,1.171h2.926a.585.585,0,0,0,0-1.171Z" transform="translate(-13 -3)" fill="#002395"/>
</svg>
