<svg xmlns="http://www.w3.org/2000/svg" width="11.607" height="27.141" viewBox="0 0 11.607 27.141">
  <g id="Groupe_115" data-name="Groupe 115" transform="translate(-59.236 -302.213)">
    <g id="transfusion-human" transform="translate(59.236 302.213)">
      <path id="Tracé_253" data-name="Tracé 253" d="M5.586,12.673a4.836,4.836,0,1,1,4.836-4.836A4.842,4.842,0,0,1,5.586,12.673Zm0-7.738a2.9,2.9,0,1,0,2.9,2.9A2.9,2.9,0,0,0,5.586,4.935Z" transform="translate(0.217 -3)" fill="#002395"/>
      <path id="Tracé_254" data-name="Tracé 254" d="M2.9,27.662l-.854-7.489H.967A.968.968,0,0,1,0,19.206V16.3a5.8,5.8,0,0,1,11.607,0v2.9a.968.968,0,0,1-.967.967H9.559L8.7,27.064a.969.969,0,0,1-.96.847S2.962,28.146,2.9,27.662Zm3.983-1.685.862-6.891a.969.969,0,0,1,.96-.847h.967V16.3a3.869,3.869,0,0,0-7.738,0v1.935H2.9c.486,0,.9.364,1.821,7.738Z" transform="translate(0 -0.827)" fill="#002395"/>
    </g>
    <path id="np_bolt_1341237_000000" d="M25.055,9.024h-1.3V7.07l-2.373,3.56h1.3v1.954Z" transform="translate(41.878 308.713)" fill="#002395"/>
  </g>
</svg>
