<svg xmlns="http://www.w3.org/2000/svg" width="14.999" height="23.394" viewBox="0 0 14.999 23.394">
  <g id="blood-drop" transform="translate(-4.25 -0.253)">
    <path id="Tracé_270" data-name="Tracé 270" d="M11.75,23.647a7.509,7.509,0,0,1-7.5-7.5C4.25,11.132,8.615,3.841,10.492.94a1.494,1.494,0,0,1,2.517,0c1.875,2.9,6.24,10.189,6.24,15.2A7.507,7.507,0,0,1,11.75,23.647Zm0-21.889c-1.415,2.188-6,9.65-6,14.39a6,6,0,0,0,12,0C17.75,11.4,13.16,3.938,11.75,1.758Z" fill="#ed4e41"/>
    <path id="Tracé_271" data-name="Tracé 271" d="M11.75,20.65a4.505,4.505,0,0,1-4.5-4.5.75.75,0,0,1,1.5,0,3,3,0,0,0,3,3,.75.75,0,1,1,0,1.5Z" fill="#ed4e41"/>
  </g>
</svg>
