<svg xmlns="http://www.w3.org/2000/svg" width="18.273" height="28.293" viewBox="0 0 18.273 28.293">
  <g id="np_cybernetic-limb_1927738_000000" transform="translate(-19.001 -2)">
    <path id="Tracé_279" data-name="Tracé 279" d="M24.541,82.861a7.544,7.544,0,0,1-4.774,1.946.845.845,0,0,0-.767.884.906.906,0,0,0,.884.884,17.005,17.005,0,0,0,6.307-.884,3.668,3.668,0,0,1,2.947.059.893.893,0,0,0,1.238-.825v-1.3a2.055,2.055,0,0,1-1.474.531A2.208,2.208,0,0,1,26.723,81.8a5.323,5.323,0,0,0-2.182,1.06Z" transform="translate(0 -56.281)" fill="#002395"/>
    <path id="Tracé_280" data-name="Tracé 280" d="M48.8,57.2l.177,5.482a2.195,2.195,0,0,1,2.181.117l1-5.364A2.742,2.742,0,0,1,48.8,57.2Z" transform="translate(-21.018 -38.93)" fill="#002395"/>
    <path id="Tracé_281" data-name="Tracé 281" d="M52.7,46.248A1.688,1.688,0,0,0,51.05,44.6,1.649,1.649,0,0,0,49.4,46.248,1.688,1.688,0,0,0,51.05,47.9,1.613,1.613,0,0,0,52.7,46.248Z" transform="translate(-21.439 -30.043)" fill="#002395"/>
    <path id="Tracé_282" data-name="Tracé 282" d="M51.18,79.753a1.09,1.09,0,1,0-2.181,0,1.12,1.12,0,0,0,1.12,1.12,1.108,1.108,0,0,0,1.06-1.12Z" transform="translate(-21.158 -54.058)" fill="#002395"/>
    <path id="Tracé_283" data-name="Tracé 283" d="M55.075,15.027A45.469,45.469,0,0,0,60.263,4a4.239,4.239,0,0,1-5.246-2A43.578,43.578,0,0,0,51.6,13.731a2.643,2.643,0,0,1,3.478,1.3Z" transform="translate(-22.99)" fill="#002395"/>
  </g>
</svg>
