<svg xmlns="http://www.w3.org/2000/svg" width="23.499" height="20.063" viewBox="0 0 23.499 20.063">
  <g id="np_pelvis_576018_000000" transform="translate(-0.89 -8.07)">
    <path id="Tracé_272" data-name="Tracé 272" d="M38.857,18.266a3.524,3.524,0,0,1,.72.32,2.541,2.541,0,0,0,3.362-.01,3.231,3.231,0,0,1,.713-.307l.144.16a4.458,4.458,0,0,1-.587.774,1.259,1.259,0,0,0-.584,1.1c.022.385-.284.607-.655.633a11.04,11.04,0,0,1-1.418,0,.647.647,0,0,1-.686-.7,1.1,1.1,0,0,0-.489-.953,7.225,7.225,0,0,1-.69-.829l.17-.183Z" transform="translate(-28.754 -7.756)" fill="#002395"/>
    <path id="Tracé_273" data-name="Tracé 273" d="M39.1,8.1a7.952,7.952,0,0,1,.89.465,2.586,2.586,0,0,0,2.978,0,8.5,8.5,0,0,1,.942-.492c.1.549-.234.758-.466.972a1.3,1.3,0,0,0-.59,1.1c.024.4-.292.622-.692.637-.457.017-.915.019-1.372,0a.658.658,0,0,1-.7-.734,1,1,0,0,0-.448-.879,1.452,1.452,0,0,1-.657-.918L39.1,8.1Z" transform="translate(-28.98)" fill="#002395"/>
    <path id="Tracé_274" data-name="Tracé 274" d="M26.878,24.675c-1.361-2.023-5.812-3.115-7.8-1.234-.266.252-.522.517-.794.762a2.127,2.127,0,0,1-2.98.04c-.325-.277-.625-.585-.939-.874C12.476,21.637,7.547,22,6.68,24.745c-.024.08-.049.164-.071.25a3.271,3.271,0,0,0-.11.543,2.314,2.314,0,0,0,.559,2.1c.275.25.55.362.864.021a2.064,2.064,0,0,1,3.019.015,3.282,3.282,0,0,1,.453,4.643l0,.006a4.816,4.816,0,0,0-.731,1.019,1.281,1.281,0,0,0-.026.987,2.878,2.878,0,0,0,3.654,1.007c.606-.327,1.2-.675,1.807-1a1.361,1.361,0,0,1,1.352,0c.576.311,1.16.613,1.715.959a2.176,2.176,0,0,0,2.593-.03c.277-.191.568-.363.828-.574a.955.955,0,0,0,.246-1.454c-.2-.325-.455-.62-.691-.925-.063-.08-.123-.163-.183-.246a3.311,3.311,0,0,1,1.277-4.813,1.927,1.927,0,0,1,2.326.329c.41.389.62.386,1-.031a2.179,2.179,0,0,0,.325-2.883Zm-11.953,9.1a1.486,1.486,0,0,1-1.121.527,1.38,1.38,0,0,1-1.3-.612c-.544-.733.376-1.22,1.019-1.257C14.063,32.4,15.374,33.1,14.926,33.778Zm2.1-.773h-.845s-1.6.07-2.434-2.676a6.422,6.422,0,0,0-.8-1.46s-.834-1.772.348-2.085c.884-.234,1.358.452,1.663,1.173.15.353.249.736.43,1.075.1.189.236.352.327.55.067.146.112.751.187.818l.7.612.7-.612a7.779,7.779,0,0,0,.167-.774,4.441,4.441,0,0,1,.3-.5,7.217,7.217,0,0,0,.4-1.051c.291-.743.835-1.528,1.744-1.286,1.181.313.348,2.085.348,2.085a6.377,6.377,0,0,0-.8,1.46c-.834,2.745-2.433,2.675-2.433,2.675Zm4.087.514a1.4,1.4,0,0,1-.953.819A2.145,2.145,0,0,1,18.831,34c-1.013-.535.632-1.578,1.239-1.536a1.372,1.372,0,0,1,.919.353.823.823,0,0,1,.121.7Z" transform="translate(-4.244 -10.836)" fill="#002395"/>
    <path id="Tracé_275" data-name="Tracé 275" d="M79.391,57.6H77.408c-.032-.608-.064-1.2-.094-1.79-.036-.686-.043-1.376-.109-2.059a5.261,5.261,0,0,0-1.078-2.682,6.883,6.883,0,0,1-.822-1.311,2.212,2.212,0,0,1,.968-2.806A1.057,1.057,0,0,1,77.8,47.5c.284.735.511.865,1.287.712.529-.1,1.08-.277,1.456.284a1.75,1.75,0,0,1,.082,1.871,9.817,9.817,0,0,0-1.183,4.1c-.04.854-.038,1.71-.053,2.565,0,.18,0,.361,0,.574Z" transform="translate(-56.472 -29.471)" fill="#002395"/>
    <path id="Tracé_276" data-name="Tracé 276" d="M4.446,57.635h-2.1c0-.549-.01-1.078,0-1.607a10.943,10.943,0,0,0-1.267-5.693,1.767,1.767,0,0,1-.066-1.469,1,1,0,0,1,1.217-.712c.2.033.386.09.581.123.589.1.956-.06,1.074-.645a1.12,1.12,0,0,1,1.835-.478,2.239,2.239,0,0,1,.558,3,2.6,2.6,0,0,1-.341.541,6.276,6.276,0,0,0-1.5,4.447c0,.82,0,1.641,0,2.5Z" transform="translate(0 -29.513)" fill="#002395"/>
  </g>
</svg>
