<svg xmlns="http://www.w3.org/2000/svg" width="17.79" height="35.901" viewBox="0 0 17.79 35.901">
  <path id="np_antepartum_1873331_000000" d="M40.856,28.508a4.766,4.766,0,0,1-.761-.735.954.954,0,0,1-.163-.332,1.1,1.1,0,0,1,.093-.18,3.34,3.34,0,0,0,.477-1.509c.126-1.383-2.977-3.988-5.853-5.744l.292-.051.142-.024a2.732,2.732,0,0,0,2.581-2.345c.038-.137.083-.284.129-.418a2.115,2.115,0,0,0,.836-.678c.067-.113.263-.451-.024-1.924h0a4.219,4.219,0,0,0-.392-1.994,2.137,2.137,0,0,0,.33-1.932c-.418-1.129-1.986-1.8-4.736-2.058a5.009,5.009,0,0,0-4.055,1.075c-1.1,1.009-1.6,2.706-1.519,5.182,0,.418-.238.627-.715,1.021v0a2.987,2.987,0,0,0-1.225,1.7A2.257,2.257,0,0,0,27.393,20a4.917,4.917,0,0,0-.544,1.4.4.4,0,0,0,0,.124c0,.046.142,4.779,0,7.108-.193,3.141.292,5.167,1.439,6.025a2.51,2.51,0,0,0,1.209.506,10,10,0,0,0-1.552,3.3,17.45,17.45,0,0,0,0,5.565.522.522,0,0,0,.514.418h.083a.523.523,0,0,0,.418-.6,16.87,16.87,0,0,1,0-5.164,5.667,5.667,0,0,1,.23-.761.518.518,0,0,0,.188,0,14.669,14.669,0,0,1,5.122-.167,14.717,14.717,0,0,1,6.05,2.066,17.625,17.625,0,0,1-1.37,1.467.511.511,0,0,0-.171.385v2.211a.523.523,0,0,0,1.045,0V41.9c.782-.753,3.905-3.956,3.972-7.108a7.542,7.542,0,0,0-3.17-6.285ZM37.683,15.964a2.051,2.051,0,0,1-.536.335.55.55,0,0,0-.274.3c-.088.242-.155.477-.217.7-.268.916-.4,1.375-1.752,1.605l-.142.024c-.281.046-.665.113-1.008.137a6.54,6.54,0,0,0,.4-.895,2.06,2.06,0,0,0-.6-1.764,4.1,4.1,0,0,0,1.705-1.873,7.566,7.566,0,0,0,.611-2.295c1.334.327,1.672.737,1.672,2.367a.507.507,0,0,0,0,.1,5.911,5.911,0,0,1,.142,1.267ZM27.31,17.776a2.017,2.017,0,0,1,.866-1.1,2.29,2.29,0,0,0,1.1-1.865c-.072-2.158.309-3.6,1.166-4.4a3.985,3.985,0,0,1,3.24-.794c3.1.289,3.73,1.067,3.854,1.388h0a.947.947,0,0,1-.109.756,5.835,5.835,0,0,0-1.953-.681.524.524,0,0,0-.438.109.531.531,0,0,0-.193.41,6.74,6.74,0,0,1-.552,2.509,3.028,3.028,0,0,1-1.772,1.625.523.523,0,0,0-.369.377.512.512,0,0,0,.147.51c.461.418.879,1.045.836,1.23a6.531,6.531,0,0,1-.519,1.07,7.376,7.376,0,0,0-1.93-.678,3,3,0,0,0-2.672.921,1.255,1.255,0,0,1-.7-1.388ZM34.659,36.72a16.23,16.23,0,0,0-4.934.083,10.945,10.945,0,0,1,1.133-1.672l.456-.075a19.991,19.991,0,0,1,2.042-.263,14.06,14.06,0,0,1,2.822.351.515.515,0,0,0,.418-.1.527.527,0,0,0,.167-.243,4.694,4.694,0,0,0,1.919.436c.116,0,.232-.008.346-.021.367-.042,1.23-.3,1.254-1.769a2.29,2.29,0,0,0-1.71-2.246l-2.037-.544a6.674,6.674,0,0,0-3.16-.764c-.418-.024-.777-.029-1.083-.029a14.365,14.365,0,0,0,.485-3.216,19.793,19.793,0,0,0-.225-2.981.524.524,0,0,0-.606-.465.524.524,0,0,0-.423.637,19.505,19.505,0,0,1,.209,2.809,15.728,15.728,0,0,1-.63,3.618.532.532,0,0,0,.054.48.524.524,0,0,0,.447.193,12.424,12.424,0,0,1,1.672,0,7.166,7.166,0,0,1,2.479.5v2.546a12.2,12.2,0,0,0-2.484-.252c-.879.067-1.576.185-2.136.281-1.2.2-1.648.255-2.22-.176-.836-.619-1.187-2.437-1.024-5.127.137-2.257.021-6.535,0-7.15.1-.389.727-2.554,2.664-2.287,2.605.364,8.994,5.243,8.893,6.389h0a2.274,2.274,0,0,1-.338,1.083,1.257,1.257,0,0,0,.1,1.6,5.11,5.11,0,0,0,.957.967,6.587,6.587,0,0,1,2.817,5.478,7.989,7.989,0,0,1-1.785,4.214,15.055,15.055,0,0,0-6.535-2.275Zm3.6-4.511a1.252,1.252,0,0,1,.936,1.217c0,.71-.242.737-.322.748a3.76,3.76,0,0,1-2.091-.552V31.815Z" transform="translate(-26.239 -8.546)" fill="#002395"/>
</svg>
