<svg id="brain-head-1" xmlns="http://www.w3.org/2000/svg" width="25.951" height="28.142" viewBox="0 0 25.951 28.142">
  <path id="Tracé_258" data-name="Tracé 258" d="M5.2,28.141a.88.88,0,0,0,.879-.879V19.915a.884.884,0,0,0-.281-.645A10.1,10.1,0,0,1,12.662,1.76c7.049,0,8.956,5.064,11.6,12.075.247.657.5,1.324.757,2H22.787a.88.88,0,0,0-.879.879v3.518a2.641,2.641,0,0,1-2.638,2.638H17.511a.88.88,0,0,0-.879.879v3.518a.879.879,0,1,0,1.759,0V24.623h.879a4.4,4.4,0,0,0,4.4-4.4V17.588h1.348a1.788,1.788,0,0,0,.628-.116A1.763,1.763,0,0,0,26.658,15.2c-.256-.662-.5-1.317-.745-1.962C23.234,6.124,20.927,0,12.674,0A11.86,11.86,0,0,0,4.32,20.291v6.971A.88.88,0,0,0,5.2,28.141Z" transform="translate(-0.823)" fill="#002395"/>
  <path id="Tracé_259" data-name="Tracé 259" d="M10.159,14.185a1.744,1.744,0,0,0,.815-.2l9.22-4.823a1.764,1.764,0,0,0,.743-2.378,1.87,1.87,0,0,0-.152-.242,7.036,7.036,0,0,0-12.3,6.429A1.754,1.754,0,0,0,10.159,14.185Zm5.009-8.671A5.242,5.242,0,0,1,19.381,7.6l-9.223,4.824a5.272,5.272,0,0,1,5.01-6.911Z" transform="translate(-3.765 0.648)" fill="#002395"/>
</svg>
