<svg xmlns="http://www.w3.org/2000/svg" width="19.188" height="21.375" viewBox="0 0 19.188 21.375">
  <path id="np_tongue_269936_000000" d="M21.925,38.706l.052.34a5.983,5.983,0,0,0,3.141,4.348v3.419a6.1,6.1,0,0,0,12.194,0V43.382a6.025,6.025,0,0,0,3.1-4.266l.331-1.854a4.907,4.907,0,0,0-1.072-3.987,4.851,4.851,0,0,0-3.739-1.74l-9.423,0a4.886,4.886,0,0,0-4.82,5.666l.235,1.5m13.433,8.118a4.14,4.14,0,1,1-8.28,0v-6.9h8.271l0,6.9Zm.577-11.672H26.509a4.861,4.861,0,0,0-2.9.958,2.956,2.956,0,0,1,.68-1.585,2.907,2.907,0,0,1,2.224-1.031h9.425a2.925,2.925,0,0,1,2.915,2.6A5,5,0,0,0,35.934,35.152Z" transform="translate(-21.627 -31.535)" fill="#002395"/>
</svg>
