<svg xmlns="http://www.w3.org/2000/svg" width="23.95" height="22.125" viewBox="0 0 23.95 22.125">
  <g id="hair-skin-1" transform="translate(-0.025 -0.733)">
    <path id="Tracé_260" data-name="Tracé 260" d="M1.525,22.858a.8.8,0,0,1-.13-.011,1.12,1.12,0,0,1-.988-1.025A.678.678,0,0,1,.4,21.735s0-.03,0-.044A1.119,1.119,0,0,1,1.52,20.61h0a1.123,1.123,0,0,1,1.126,1.12v0a1.121,1.121,0,0,1-1,1.114A1.028,1.028,0,0,1,1.525,22.858Z" fill="#002395"/>
    <path id="Tracé_261" data-name="Tracé 261" d="M4.525,19.108a.8.8,0,0,1-.13-.011,1.12,1.12,0,0,1-.988-1.025.678.678,0,0,1-.007-.087s0-.03,0-.044A1.119,1.119,0,0,1,4.52,16.86h0a1.123,1.123,0,0,1,1.126,1.12v0A1.121,1.121,0,0,1,4.653,19.1,1.028,1.028,0,0,1,4.525,19.108Z" fill="#002395"/>
    <path id="Tracé_262" data-name="Tracé 262" d="M8.275,22.858a.8.8,0,0,1-.13-.011,1.12,1.12,0,0,1-.988-1.025.693.693,0,0,1-.007-.088s0-.03,0-.044A1.119,1.119,0,0,1,8.27,20.609h0A1.123,1.123,0,0,1,9.4,21.729v0A1.121,1.121,0,0,1,8.4,22.848.863.863,0,0,1,8.275,22.858Z" fill="#002395"/>
    <path id="Tracé_263" data-name="Tracé 263" d="M22.525,22.858a.817.817,0,0,1-.131-.011,1.126,1.126,0,0,1-.983-.983.8.8,0,0,1-.011-.131,1.125,1.125,0,0,1,1.124-1.125.492.492,0,0,1,.051,0,1.117,1.117,0,0,1,1.073,1.081c0,.014,0,.03,0,.042a.523.523,0,0,1-.006.081,1.112,1.112,0,0,1-.988,1.033A.939.939,0,0,1,22.525,22.858Z" fill="#002395"/>
    <path id="Tracé_264" data-name="Tracé 264" d="M19.525,19.108a.817.817,0,0,1-.131-.011,1.126,1.126,0,0,1-.983-.983.8.8,0,0,1-.011-.131,1.125,1.125,0,0,1,1.124-1.125.492.492,0,0,1,.051,0,1.117,1.117,0,0,1,1.073,1.081c0,.014,0,.03,0,.042a.523.523,0,0,1-.006.081,1.112,1.112,0,0,1-.988,1.033A.939.939,0,0,1,19.525,19.108Z" fill="#002395"/>
    <path id="Tracé_265" data-name="Tracé 265" d="M15.775,22.858a.817.817,0,0,1-.131-.011,1.126,1.126,0,0,1-.983-.983.8.8,0,0,1-.011-.131,1.125,1.125,0,0,1,1.124-1.125.492.492,0,0,1,.051,0A1.117,1.117,0,0,1,16.9,21.692c0,.014,0,.03,0,.042a.523.523,0,0,1-.006.081,1.112,1.112,0,0,1-.988,1.033A.939.939,0,0,1,15.775,22.858Z" fill="#002395"/>
    <path id="Tracé_266" data-name="Tracé 266" d="M18.025,14.983a4.535,4.535,0,0,1-4.437-3.75H10.463a4.536,4.536,0,0,1-4.437,3.75,4.536,4.536,0,0,1-4.437-3.75H.775a.75.75,0,1,1,0-1.5h1.5a.75.75,0,0,1,.75.75,3,3,0,1,0,6,0,.75.75,0,0,1,.75-.75h4.5a.75.75,0,0,1,.75.75,3,3,0,0,0,6,0,.75.75,0,0,1,.75-.75h1.45a.75.75,0,1,1,0,1.5h-.763A4.534,4.534,0,0,1,18.025,14.983Z" fill="#002395"/>
    <path id="Tracé_267" data-name="Tracé 267" d="M12.025,19.108a.8.8,0,0,1-.13-.011,1.12,1.12,0,0,1-.988-1.025.693.693,0,0,1-.007-.088s0-.03,0-.044a1.119,1.119,0,0,1,1.118-1.081h0a1.123,1.123,0,0,1,1.126,1.121v0a1.121,1.121,0,0,1-.995,1.114A.863.863,0,0,1,12.025,19.108Z" fill="#002395"/>
    <path id="Tracé_268" data-name="Tracé 268" d="M6.025,11.983a.749.749,0,0,1-.745-.667c-.032-.287-.757-7.08,1.645-10.283a.75.75,0,0,1,1.2.9C6.083,4.656,6.763,11.086,6.77,11.15a.75.75,0,0,1-.663.828A.556.556,0,0,1,6.025,11.983Z" fill="#002395"/>
    <path id="Tracé_269" data-name="Tracé 269" d="M18.025,11.983a.75.75,0,0,1-.745-.667c-.032-.288-.754-7.083,1.645-10.283a.75.75,0,1,1,1.2.9c-2.042,2.723-1.362,9.153-1.354,9.217a.752.752,0,0,1-.663.828A.569.569,0,0,1,18.025,11.983Z" fill="#002395"/>
  </g>
</svg>
