<svg xmlns="http://www.w3.org/2000/svg" width="24" height="24" viewBox="0 0 24 24">
  <g id="layout-headline" transform="translate(0 0.003)">
    <path id="Tracé_227" data-name="Tracé 227" d="M2.25,6A2.252,2.252,0,0,1,0,3.747v-1.5A2.252,2.252,0,0,1,2.25,0h19.5A2.252,2.252,0,0,1,24,2.247v1.5A2.252,2.252,0,0,1,21.75,6H2.25Zm0-4.5a.75.75,0,0,0-.75.75v1.5a.75.75,0,0,0,.75.75h19.5a.75.75,0,0,0,.75-.75v-1.5a.75.75,0,0,0-.75-.75H2.25Z" fill="#002395"/>
    <path id="Tracé_228" data-name="Tracé 228" d="M2.25,15A2.252,2.252,0,0,1,0,12.747v-1.5A2.252,2.252,0,0,1,2.25,9h19.5A2.252,2.252,0,0,1,24,11.247v1.5A2.252,2.252,0,0,1,21.75,15Zm0-4.5a.75.75,0,0,0-.75.75v1.5a.75.75,0,0,0,.75.75h19.5a.75.75,0,0,0,.75-.75v-1.5a.75.75,0,0,0-.75-.75Z" fill="#002395"/>
    <path id="Tracé_229" data-name="Tracé 229" d="M2.25,24A2.252,2.252,0,0,1,0,21.747v-1.5A2.252,2.252,0,0,1,2.25,18h19.5A2.252,2.252,0,0,1,24,20.247v1.5A2.252,2.252,0,0,1,21.75,24Zm0-4.5a.75.75,0,0,0-.75.75v1.5a.75.75,0,0,0,.75.75h19.5a.75.75,0,0,0,.75-.75v-1.5a.75.75,0,0,0-.75-.75Z" fill="#002395"/>
  </g>
</svg>
