<svg xmlns="http://www.w3.org/2000/svg" xmlns:xlink="http://www.w3.org/1999/xlink" width="149.827" height="149.827" viewBox="0 0 149.827 149.827">
  <defs>
    <clipPath id="clip-path">
      <circle id="Ellipse_8" data-name="Ellipse 8" cx="74.914" cy="74.914" r="74.914" fill="#ffb811"/>
    </clipPath>
  </defs>
  <g id="Groupe_47" data-name="Groupe 47" transform="translate(-140 -260)">
    <g id="Groupe_46" data-name="Groupe 46" transform="translate(140 260)">
      <path id="Tracé_192" data-name="Tracé 192" d="M74.914,0A74.914,74.914,0,1,1,0,74.914,74.914,74.914,0,0,1,74.914,0Z" fill="#fff"/>
      <g id="Groupe_45" data-name="Groupe 45" clip-path="url(#clip-path)">
        <g id="Groupe_44" data-name="Groupe 44" transform="translate(30.198 16.445)">
          <path id="Tracé_59" data-name="Tracé 59" d="M170.754,362.032s-12.53-41.475,3.425-79.525c0,0,13.676-20.661,35.194-6.67,0,0,12.923-2.023,22.988,17.369s1.967,68.826,1.967,68.826Z" transform="translate(-157.205 -270.976)" fill="#303030"/>
          <path id="Tracé_60" data-name="Tracé 60" d="M211.8,346.515s10.528-36.823,2.2-53.762c-4.447-9.038-13.786-8.431-21.536-5.9-3.2,1.05-5.2,6.257-7.661,10.729-2.757,4.991-5.813,9.508-5.966,15.387-.33,12.768.3,28.269,4.49,36C191.181,363.458,211.8,346.515,211.8,346.515Z" transform="translate(-150.885 -263.876)" fill="#24272b"/>
          <path id="Tracé_61" data-name="Tracé 61" d="M249.128,344.92s-.217-6.062-10.825-11.474-13.637-5.846-13.637-5.846H185.7s-3.031.435-13.639,5.846-10.824,11.474-10.824,11.474l-1.083,42.211h90.057Z" transform="translate(-160.155 -242.762)" fill="#fff"/>
          <path id="Tracé_62" data-name="Tracé 62" d="M203.913,328.48s8.645-2.208,13.06-16.285c0,0,3.936-8.321,2.267-10.392-.411-.509-2.619,0-2.619,0s-.983-17.182-19.638-21.44c0,0-11.433,9-18.156,30.652,0,0-.644.971-.865,6.173-.259,6.143,7.966,10.322,9.513,11.138.076.135,2.751,4.456-1.425,14.89-.192.481-.876.8-1.1,1.287a63.273,63.273,0,0,1-3.247,7.109,26.9,26.9,0,0,0-2.092,4.652c-4.337,12.827,36.649,7.481,32.878-1.784a53.813,53.813,0,0,0-3.972-7.667c-5.806-9.471-4.868-17.368-4.723-18.381Z" transform="translate(-151.285 -266.298)" fill="#ffc69a"/>
          <g id="Groupe_43" data-name="Groupe 43" transform="translate(21.771 76.884)">
            <path id="Tracé_63" data-name="Tracé 63" d="M180.563,330.848s13.315,14.234,28.63-1.08l-1.647,9.743-5.821,3.788-4.332,4.651-1.407,2.492-4.221-2.059-7.793-8.279-3.031-4.565Z" transform="translate(-171.758 -318.565)" fill="#e8262b"/>
            <g id="Groupe_42" data-name="Groupe 42" transform="translate(0 14.774)">
              <g id="Groupe_37" data-name="Groupe 37" transform="translate(0 0.142)">
                <g id="Groupe_36" data-name="Groupe 36" transform="translate(1.64)">
                  <path id="Tracé_64" data-name="Tracé 64" d="M178.495,354.266c-.4-1.919-3.9-18.824-2.3-22.02l1.164.583c-1.059,2.114.86,13.817,2.408,21.171Z" transform="translate(-175.781 -332.246)" fill="#32374b"/>
                </g>
                <path id="Tracé_65" data-name="Tracé 65" d="M187.674,352.625a6.494,6.494,0,1,0-6.493,6.494A6.493,6.493,0,0,0,187.674,352.625Z" transform="translate(-174.686 -325.328)" fill="#54c4e8"/>
                <path id="Tracé_66" data-name="Tracé 66" d="M184.646,351.869a4.221,4.221,0,1,0-4.221,4.221A4.222,4.222,0,0,0,184.646,351.869Z" transform="translate(-173.93 -324.572)" fill="#32374b"/>
              </g>
              <g id="Groupe_41" data-name="Groupe 41" transform="translate(31.857)">
                <rect id="Rectangle_1481" data-name="Rectangle 1481" width="1.297" height="18.725" transform="translate(11.155)" fill="#32374b"/>
                <g id="Groupe_38" data-name="Groupe 38" transform="translate(15.964 23.28)">
                  <path id="Tracé_67" data-name="Tracé 67" d="M206.618,371.953l-.015-.65c.037,0,3.812-.109,5.869-2.784,1.4-1.823,1.713-4.421.909-7.719-2.558-10.557-3.307-12.89-3.314-12.912l.617-.2c.03.088.76,2.352,3.331,12.959.847,3.5.5,6.285-1.032,8.272C210.732,371.84,206.783,371.95,206.618,371.953Z" transform="translate(-206.603 -347.689)" fill="#0096bc"/>
                </g>
                <g id="Groupe_39" data-name="Groupe 39" transform="translate(0 23.28)">
                  <path id="Tracé_68" data-name="Tracé 68" d="M203.8,371.953c-.168,0-4.117-.114-6.368-3.034-1.533-1.987-1.879-4.771-1.031-8.272,2.573-10.606,3.3-12.87,3.331-12.959l.617.2c-.009.022-.758,2.355-3.317,12.912-.8,3.3-.491,5.9.914,7.722,2.063,2.677,5.83,2.781,5.867,2.781Z" transform="translate(-195.948 -347.689)" fill="#0096bc"/>
                </g>
                <g id="Groupe_40" data-name="Groupe 40" transform="translate(3.188 17.977)">
                  <path id="Tracé_69" data-name="Tracé 69" d="M214.317,350.073a.979.979,0,0,1-.9-.6c-.055-.133-1.512-3.371-6.672-3.371-5.183,0-6.744,3.193-6.811,3.328a.973.973,0,0,1-1.769-.809c.081-.18,2.09-4.466,8.581-4.466,6.513,0,8.4,4.387,8.474,4.574a.974.974,0,0,1-.529,1.272A1,1,0,0,1,214.317,350.073Z" transform="translate(-198.076 -344.15)" fill="#32374b"/>
                </g>
                <path id="Tracé_70" data-name="Tracé 70" d="M206.388,362.584a1.627,1.627,0,1,0,0,3.247c2.056,0,2.11-1.624,2.11-1.624S208.444,362.584,206.388,362.584Z" transform="translate(-191.609 -316.988)" fill="#253545"/>
                <path id="Tracé_71" data-name="Tracé 71" d="M202.947,365.831a1.627,1.627,0,1,0,0-3.247c-2.056,0-2.111,1.623-2.111,1.623S200.891,365.831,202.947,365.831Z" transform="translate(-193.513 -316.988)" fill="#253545"/>
              </g>
            </g>
            <path id="Tracé_72" data-name="Tracé 72" d="M189.559,353.692s10.043-10.928,12.761-17.426a12.748,12.748,0,0,0-.963-12.445c-.867-1.193-.325-2.49,4.546,1.188s7.793,9.878,7.793,13.774c0,2.6-6.7-.641-6.7-.641s2.337,3.421,2.262,3.756-17.623,13.744-17.623,13.744Z" transform="translate(-167.275 -322.143)" fill="#4fb5c7"/>
            <path id="Tracé_73" data-name="Tracé 73" d="M202.074,365.828s-6.817-15.991-21.59-22.729c0,0-2.113-1.7.485-3.166.61-1.3-.244-1.787-.244-1.787s-.716-1.582-4.343,1.99,1.287-16.98,11.083-17.844c0,0-7.2,11.513,1.678,19.537C199.315,351.028,202.074,365.828,202.074,365.828Z" transform="translate(-174.435 -322.291)" fill="#4fb5c7"/>
          </g>
          <path id="Tracé_74" data-name="Tracé 74" d="M200.49,314.83s-5.7.4-7.6.346c-2-.057-7.96-.827-7.96-.827l-.617-1.684,10.623-.5s4.76-.376,4.854-.376a7.785,7.785,0,0,1,.844.978Z" transform="translate(-148.119 -250.638)" fill="#dfdfde"/>
          <path id="Tracé_75" data-name="Tracé 75" d="M178.832,311.015s-.451.9-.865,6.173c-.484,6.129,7.966,10.322,9.513,11.138.051.087,5.963.384,10.154.509V281.668l-.646-1.3S185.555,289.365,178.832,311.015Z" transform="translate(-151.289 -266.298)" fill="#ffc69a"/>
          <path id="Tracé_76" data-name="Tracé 76" d="M212.913,301.8c-.411-.509-2.619,0-2.619,0s-.983-17.182-19.638-21.44v48.472c3.9.117,6.742.085,6.813-.4l.117.048s8.645-2.208,13.06-16.285C210.646,312.2,214.582,303.874,212.913,301.8Z" transform="translate(-144.957 -266.298)" fill="#ffd1b5"/>
        </g>
      </g>
    </g>
  </g>
</svg>
