<svg xmlns="http://www.w3.org/2000/svg" width="16.787" height="27.141" viewBox="0 0 16.787 27.141">
  <g id="Groupe_142" data-name="Groupe 142" transform="translate(-60.236 -610.213)">
    <g id="Groupe_116" data-name="Groupe 116" transform="translate(1 308)">
      <g id="transfusion-human" transform="translate(59.236 302.213)">
        <path id="Tracé_253" data-name="Tracé 253" d="M5.586,12.673a4.836,4.836,0,1,1,4.836-4.836A4.842,4.842,0,0,1,5.586,12.673Zm0-7.738a2.9,2.9,0,1,0,2.9,2.9A2.9,2.9,0,0,0,5.586,4.935Z" transform="translate(0.217 -3)" fill="#002395"/>
        <path id="Tracé_254" data-name="Tracé 254" d="M2.9,27.662l-.854-7.489H.967A.968.968,0,0,1,0,19.206V16.3a5.8,5.8,0,0,1,11.607,0v2.9a.968.968,0,0,1-.967.967H9.559L8.7,27.064a.969.969,0,0,1-.96.847S2.962,28.146,2.9,27.662Zm3.983-1.685.862-6.891a.969.969,0,0,1,.96-.847h.967V16.3a3.869,3.869,0,0,0-7.738,0v1.935H2.9c.486,0,.9.364,1.821,7.738Z" transform="translate(0 -0.827)" fill="#002395"/>
      </g>
    </g>
    <path id="np_close_2318487_000000" d="M21.13,20.974l1.854-1.854a.224.224,0,0,0-.315-.315l-1.854,1.854L18.96,18.8a.225.225,0,1,0-.318.318L20.5,20.974l-1.857,1.854a.224.224,0,1,0,.315.315l1.857-1.854,1.854,1.854a.224.224,0,0,0,.315-.315Z" transform="translate(53.45 613.355)" fill="#002395" stroke="#002395" stroke-width="1"/>
  </g>
</svg>
