<svg xmlns="http://www.w3.org/2000/svg" width="24.467" height="27.887" viewBox="0 0 24.467 27.887">
  <g id="np_stomach_576009_000000" transform="translate(-6.91 -0.893)">
    <path id="Tracé_224" data-name="Tracé 224" d="M30.122,9.271a4.056,4.056,0,0,0-2.965-2.3H27.15a2.1,2.1,0,0,1-1.474-1.017c-.1-.182-.2-.363-.283-.546a5.592,5.592,0,0,1-.46-2.977,1.368,1.368,0,0,0-2.715-.335,8.248,8.248,0,0,0,.69,4.452l.007.014c.664,1.441-.479,2.964-.82,4.347a10.758,10.758,0,0,1-1.781,3.763,12.305,12.305,0,0,1-6.959,4.621c-.016,0-.032.007-.051.012A3.721,3.721,0,0,0,11.065,20.8a3.451,3.451,0,0,1-1.051.984A6.233,6.233,0,0,0,8.47,23.1,6.523,6.523,0,0,0,6.912,27.45a1.367,1.367,0,0,0,1.365,1.329h.039a1.368,1.368,0,0,0,1.329-1.406,3.693,3.693,0,0,1,.692-2.245.469.469,0,0,1,.759,0,3.724,3.724,0,0,0,1.195,1.026,12.92,12.92,0,0,0,6.188,1.579c.064,0,.131,0,.2,0A12.907,12.907,0,0,0,30.122,9.271ZM18.646,25.724h-.165a10.892,10.892,0,0,1-5.225-1.333,1.659,1.659,0,0,1-.681-.679,1.642,1.642,0,0,1-.162-1,1.7,1.7,0,0,1,1.218-1.421c.038-.012.077-.022.116-.031s.069-.016.1-.023a14.628,14.628,0,0,0,6.715-3.78A12.92,12.92,0,0,0,24.153,10.9c0-.023.01-.05.014-.08a2.229,2.229,0,0,1,.6-1.23,2.3,2.3,0,0,1,1.63-.681,2.063,2.063,0,0,1,1.684.841,2.491,2.491,0,0,1,.231.388,10.8,10.8,0,0,1,1.061,4.789,10.956,10.956,0,0,1-10.728,10.8Z" transform="translate(0 0)" fill="#002395"/>
    <path id="Tracé_225" data-name="Tracé 225" d="M43.84,64.95a.753.753,0,0,1,.61,1.24,9.525,9.525,0,0,1-7.064,3.326h-.14a9.547,9.547,0,0,1-3.924-.844l-.007,0a.573.573,0,0,1-.019-1.025.741.741,0,0,1,.111-.051,16.04,16.04,0,0,0,6.282-3.443.746.746,0,0,1,.782-.136c.053.022.105.045.158.071.37.183.694.455,1.07.628a4.56,4.56,0,0,0,2.125.236.073.073,0,0,0,.016,0Z" transform="translate(-18.675 -45.16)" fill="#002395"/>
  </g>
</svg>
