<svg xmlns="http://www.w3.org/2000/svg" width="24.001" height="22.526" viewBox="0 0 24.001 22.526">
  <g id="music-ear" transform="translate(0.002 -0.727)">
    <path id="Tracé_204" data-name="Tracé 204" d="M4.3,17.768a.753.753,0,0,1-.477-.171A10.5,10.5,0,0,1,4.482.886a.743.743,0,0,1,.43-.135.752.752,0,0,1,.615.32.749.749,0,0,1-.185,1.044,9,9,0,0,0-.566,14.324A.75.75,0,0,1,4.3,17.768Z" fill="#002395"/>
    <path id="Tracé_205" data-name="Tracé 205" d="M7.553,15.324a.749.749,0,0,1-.494-.186,7.509,7.509,0,0,1-.7-10.584c.147-.168.3-.332.467-.487A.747.747,0,0,1,7.34,3.86a.749.749,0,0,1,.517,1.291c-.13.124-.255.255-.374.39a6.008,6.008,0,0,0,.564,8.468.75.75,0,0,1-.494,1.315Z" fill="#002395"/>
    <path id="Tracé_206" data-name="Tracé 206" d="M18.75,23.253a5.251,5.251,0,0,1-5.194-6,3.052,3.052,0,0,0-1.382-2.9A7.5,7.5,0,0,1,15.209.839,7.591,7.591,0,0,1,16.5.727a7.486,7.486,0,0,1,7.386,6.21.75.75,0,0,1-.61.868.7.7,0,0,1-.129.011.749.749,0,0,1-.739-.621,6,6,0,1,0-9.39,5.92,4.536,4.536,0,0,1,2.025,4.328,3.748,3.748,0,0,0,7.394,1.231A3.8,3.8,0,0,0,22.5,18,.75.75,0,1,1,24,18a5.251,5.251,0,0,1-5.249,5.254Z" fill="#002395"/>
    <path id="Tracé_207" data-name="Tracé 207" d="M14.6,9.851a.751.751,0,0,1-.744-.657A3.5,3.5,0,1,1,20.8,8.329a.75.75,0,0,1-.651.837.73.73,0,0,1-.094.006.749.749,0,0,1-.743-.657,2,2,0,0,0-1.984-1.753,1.893,1.893,0,0,0-.249.016A2,2,0,0,0,15.342,9.01a.75.75,0,0,1-.651.837C14.659,9.849,14.629,9.851,14.6,9.851Z" fill="#002395"/>
  </g>
</svg>
