<svg id="medical-condition-head-dizziness" xmlns="http://www.w3.org/2000/svg" width="25.267" height="27.375" viewBox="0 0 25.267 27.375">
  <path id="Tracé_194" data-name="Tracé 194" d="M22.77,26.3a.856.856,0,0,0,.855-.855V18.294a.86.86,0,0,0-.274-.627A9.879,9.879,0,0,1,20.4,8.5a.854.854,0,0,0-.667-1.008.855.855,0,0,0-1.008.667,11.633,11.633,0,0,0,3.19,10.5v6.781A.855.855,0,0,0,22.77,26.3Z" transform="translate(-18.492 1.08)" fill="#002395"/>
  <path id="Tracé_195" data-name="Tracé 195" d="M1.7,26.3a.856.856,0,0,0,.855-.855V22.873h.855A4.282,4.282,0,0,0,7.692,18.6V16.03H9a1.711,1.711,0,0,0,1.6-2.325c-.245-.636-.481-1.265-.715-1.884l-.017-.043C9.37,10.45,8.9,9.2,8.393,8a.855.855,0,1,0-1.575.665c.494,1.168.958,2.4,1.45,3.712.242.644.486,1.291.737,1.944H6.837a.856.856,0,0,0-.855.855V18.6a2.569,2.569,0,0,1-2.566,2.566H1.7a.856.856,0,0,0-.855.855V25.44A.857.857,0,0,0,1.7,26.3Z" transform="translate(14.551 1.08)" fill="#002395"/>
  <path id="Tracé_196" data-name="Tracé 196" d="M23.727,8.44a.855.855,0,1,0,0-1.711c-6.642,0-10.266-1.695-10.266-2.566,0-.413,1.124-1.265,3.622-1.866a.855.855,0,0,0-.2-1.687.838.838,0,0,0-.2.024c-4.078.981-4.933,2.46-4.933,3.529,0,1.368,1.377,2.5,3.981,3.272A29.635,29.635,0,0,0,23.727,8.44Z" transform="translate(-11.749 0.114)" fill="#002395"/>
  <path id="Tracé_197" data-name="Tracé 197" d="M11.409,7.294a.858.858,0,0,0,.3-.054c2.582-.959,3.124-2.155,3.124-2.988,0-1.368-1.377-2.5-3.981-3.272a29.614,29.614,0,0,0-8-1,.855.855,0,0,0,0,1.711C9.5,1.686,13.12,3.381,13.12,4.252c0,.257-.535.837-2.009,1.385a.855.855,0,0,0,.3,1.657Z" transform="translate(9.123 0.025)" fill="#002395"/>
  <path id="Tracé_198" data-name="Tracé 198" d="M15.656,2.916a.932.932,0,0,0,.149-.013,1.285,1.285,0,0,0,1.121-1.121.883.883,0,0,0,0-.3A1.284,1.284,0,0,0,15.805.365a.817.817,0,0,0-.149-.013.932.932,0,0,0-.149.013,1.283,1.283,0,0,0-1.12,1.121.8.8,0,0,0-.013.148.908.908,0,0,0,.013.148A1.283,1.283,0,0,0,15.507,2.9.932.932,0,0,0,15.656,2.916Z" transform="translate(-7.1 0.078)" fill="#002395"/>
  <path id="Tracé_199" data-name="Tracé 199" d="M8.907,7.416A.818.818,0,0,0,9.057,7.4a1.283,1.283,0,0,0,1.12-1.12.822.822,0,0,0,0-.3,1.283,1.283,0,0,0-1.12-1.12.822.822,0,0,0-.3,0,1.283,1.283,0,0,0-1.12,1.12.823.823,0,0,0,0,.3A1.283,1.283,0,0,0,8.758,7.4.818.818,0,0,0,8.907,7.416Z" transform="translate(7.348 0.711)" fill="#002395"/>
</svg>
